<svg width="56" height="50" viewBox="0 0 56 50" fill="none" xmlns="http://www.w3.org/2000/svg">
<path d="M54.3152 0.773742C53.8759 0.394173 53.3411 0.142113 52.7687 0.044898C52.1963 -0.0523173 51.6083 0.00902224 51.0683 0.222265L2.02283 19.4902C1.38169 19.7421 0.839343 20.1948 0.476951 20.7806C0.114559 21.3664 -0.0483938 22.0538 0.0124782 22.7399C0.0733503 23.4261 0.354773 24.0741 0.814635 24.5869C1.2745 25.0998 1.88807 25.45 2.56354 25.585L15.8759 28.2477V44.6796C15.8693 45.3118 16.0536 45.9312 16.4049 46.4569C16.7561 46.9825 17.2579 47.3899 17.8445 47.6256C18.2375 47.7902 18.6591 47.8755 19.0851 47.8766C19.5015 47.8753 19.9134 47.7913 20.297 47.6296C20.6806 47.4678 21.0283 47.2315 21.3198 46.9343L28.9192 39.3349L40.132 49.2022C40.7097 49.7154 41.4555 49.9992 42.2282 50C42.5641 49.9996 42.898 49.9466 43.2175 49.843C43.7445 49.6759 44.2185 49.3735 44.5922 48.9659C44.9658 48.5584 45.2261 48.0601 45.347 47.5206L55.3427 3.90275C55.4732 3.33708 55.4465 2.74649 55.2653 2.19494C55.0842 1.64339 54.7556 1.15191 54.3152 0.773742ZM2.13014 22.552C2.1037 22.3224 2.15547 22.0905 2.27709 21.894C2.39871 21.6974 2.58307 21.5476 2.80036 21.4688L47.7582 3.80667L16.6924 26.243L2.98045 23.5006C2.75268 23.4612 2.54485 23.3461 2.39055 23.174C2.23625 23.0018 2.14451 22.7827 2.13014 22.552ZM19.8165 45.4312C19.6678 45.5798 19.4784 45.6811 19.2722 45.7221C19.066 45.7631 18.8523 45.7421 18.6581 45.6616C18.4639 45.5812 18.2978 45.4449 18.181 45.2701C18.0642 45.0953 18.0019 44.8898 18.0019 44.6796V29.7276L27.3201 37.9277L19.8165 45.4312ZM53.2705 3.42784L43.2747 47.0456C43.2336 47.2251 43.1465 47.3908 43.0221 47.5265C42.8976 47.6622 42.74 47.7633 42.5648 47.8198C42.3895 47.8763 42.2026 47.8863 42.0223 47.8489C41.8421 47.8115 41.6746 47.7278 41.5363 47.6062L18.6411 27.4582L53.0987 2.57234C53.1893 2.69308 53.2518 2.83259 53.2815 2.98062C53.3113 3.12865 53.3075 3.28146 53.2705 3.42784Z" fill="#FF5112"/>
</svg>
