<svg width="54" height="54" viewBox="0 0 54 54" fill="none" xmlns="http://www.w3.org/2000/svg">
<path d="M27 3.19043V9.14281" stroke="#FF5112" stroke-opacity="0.24" stroke-width="3" stroke-linecap="round"/>
<path d="M26.9992 26.9989L9.31641 9.34058" stroke="#FF5112" stroke-width="3" stroke-linecap="round"/>
<path d="M50.8098 27H44.8574" stroke="#FF5112" stroke-opacity="0.24" stroke-width="3" stroke-linecap="round"/>
<path d="M27 44.8572V50.8096" stroke="#FF5112" stroke-opacity="0.24" stroke-width="3" stroke-linecap="round"/>
<path d="M9.14379 27H3.19141" stroke="#FF5112" stroke-opacity="0.24" stroke-width="3" stroke-linecap="round"/>
<path d="M27.0001 2C32.784 2 38.3887 4.00548 42.8599 7.67474C47.331 11.344 50.3914 16.45 51.5197 22.1226C52.648 27.7956 51.7745 33.6839 49.048 38.7848C46.3215 43.8857 41.9108 47.8837 36.567 50.097C31.2236 52.3104 25.2777 52.6024 19.7429 50.9235C14.2081 49.2447 9.42665 45.6985 6.21328 40.8893C2.99995 36.0801 1.55349 30.3057 2.12043 24.5497C2.68733 18.7935 5.23254 13.4121 9.32239 9.32233" stroke="#FF5112" stroke-width="3" stroke-linecap="round"/>
</svg>
