<svg width="50" height="50" viewBox="0 0 50 50" fill="none" xmlns="http://www.w3.org/2000/svg">
<path d="M49 18.8594C48.7024 18.7442 48.3767 18.7229 48.0666 18.7983C47.7565 18.8737 47.477 19.0422 47.2656 19.2812L37.5 30.2187V23.4375C37.5 22.1943 37.0061 21.002 36.127 20.1229C35.2479 19.2439 34.0557 18.75 32.8125 18.75H4.6875C3.44429 18.75 2.25201 19.2439 1.37294 20.1229C0.49386 21.002 0 22.1943 0 23.4375L0 45.3125C0 46.5557 0.49386 47.748 1.37294 48.627C2.25201 49.5061 3.44429 50 4.6875 50H32.8125C34.0557 50 35.2479 49.5061 36.127 48.627C37.0061 47.748 37.5 46.5557 37.5 45.3125V38.4844L47.2656 49.4218C47.4076 49.5971 47.5859 49.7395 47.7882 49.8393C47.9905 49.9391 48.212 49.9939 48.4374 50C48.6304 50.0016 48.8217 49.9644 49 49.8906C49.2936 49.7773 49.5462 49.5779 49.7246 49.3186C49.903 49.0594 49.999 48.7522 49.9999 48.4375V20.3125C49.999 19.9977 49.903 19.6906 49.7246 19.4313C49.5462 19.172 49.2936 18.9727 49 18.8594ZM34.375 45.3125C34.375 45.7269 34.2103 46.1243 33.9173 46.4173C33.6243 46.7104 33.2269 46.875 32.8125 46.875H4.6875C4.27309 46.875 3.87567 46.7104 3.58264 46.4173C3.28962 46.1243 3.125 45.7269 3.125 45.3125V23.4375C3.125 23.0231 3.28962 22.6257 3.58264 22.3326C3.87567 22.0396 4.27309 21.875 4.6875 21.875H32.8125C33.2269 21.875 33.6243 22.0396 33.9173 22.3326C34.2103 22.6257 34.375 23.0231 34.375 23.4375V45.3125ZM46.875 44.3281L38.0312 34.375L46.875 24.4219V44.3281Z" fill="#FF5112"/>
<path d="M42.1875 20.3125H41.9844C41.6942 20.2754 41.4203 20.1576 41.1938 19.9725C40.9673 19.7875 40.7973 19.5425 40.7031 19.2656L39.5 15.625H26.5625C25.3193 15.625 24.127 15.1311 23.2479 14.252C22.3689 13.373 21.875 12.1807 21.875 10.9375V4.68749C21.875 3.44429 22.3689 2.25201 23.2479 1.37294C24.127 0.49386 25.3193 0 26.5625 0L45.3125 0C46.5557 0 47.748 0.49386 48.627 1.37294C49.5061 2.25201 50 3.44429 50 4.68749V10.9375C50.02 12.0407 49.6503 13.1157 48.9557 13.9731C48.2612 14.8306 47.2865 15.4155 46.2031 15.625L43.4844 19.6875C43.3341 19.888 43.1379 20.0495 42.9122 20.1582C42.6865 20.267 42.4379 20.3199 42.1875 20.3125ZM26.5625 3.125C26.1481 3.125 25.7507 3.28962 25.4576 3.58264C25.1646 3.87567 25 4.27309 25 4.68749V10.9375C25 11.3519 25.1646 11.7493 25.4576 12.0423C25.7507 12.3354 26.1481 12.5 26.5625 12.5H40.625C40.9525 12.4991 41.2721 12.6013 41.5385 12.7919C41.8048 12.9826 42.0045 13.2521 42.1094 13.5625L42.6562 15.2187L44.0156 13.2031C44.1571 12.9882 44.3496 12.8115 44.5758 12.6889C44.8021 12.5662 45.0551 12.5013 45.3125 12.5C45.7269 12.5 46.1243 12.3354 46.4173 12.0423C46.7104 11.7493 46.875 11.3519 46.875 10.9375V4.68749C46.875 4.27309 46.7104 3.87567 46.4173 3.58264C46.1243 3.28962 45.7269 3.125 45.3125 3.125H26.5625Z" fill="#FF5112"/>
<path d="M29.6875 9.375C29.2731 9.375 28.8757 9.21038 28.5826 8.91735C28.2896 8.62433 28.125 8.2269 28.125 7.8125C28.125 7.3981 28.2896 7.00067 28.5826 6.70765C28.8757 6.41462 29.2731 6.25 29.6875 6.25C30.1019 6.25 30.4993 6.41462 30.7924 6.70765C31.0854 7.00067 31.25 7.3981 31.25 7.8125C31.25 8.2269 31.0854 8.62433 30.7924 8.91735C30.4993 9.21038 30.1019 9.375 29.6875 9.375Z" fill="#FF5112"/>
<path d="M35.9375 9.375C35.5231 9.375 35.1257 9.21038 34.8326 8.91735C34.5396 8.62433 34.375 8.2269 34.375 7.8125C34.375 7.3981 34.5396 7.00067 34.8326 6.70765C35.1257 6.41462 35.5231 6.25 35.9375 6.25C36.3519 6.25 36.7493 6.41462 37.0424 6.70765C37.3354 7.00067 37.5 7.3981 37.5 7.8125C37.5 8.2269 37.3354 8.62433 37.0424 8.91735C36.7493 9.21038 36.3519 9.375 35.9375 9.375Z" fill="#FF5112"/>
<path d="M42.1875 9.375C41.7731 9.375 41.3757 9.21038 41.0826 8.91735C40.7896 8.62433 40.625 8.2269 40.625 7.8125C40.625 7.3981 40.7896 7.00067 41.0826 6.70765C41.3757 6.41462 41.7731 6.25 42.1875 6.25C42.6019 6.25 42.9993 6.41462 43.2924 6.70765C43.5854 7.00067 43.75 7.3981 43.75 7.8125C43.75 8.2269 43.5854 8.62433 43.2924 8.91735C42.9993 9.21038 42.6019 9.375 42.1875 9.375Z" fill="#FF5112"/>
</svg>
