<svg width="46" height="50" viewBox="0 0 46 50" fill="none" xmlns="http://www.w3.org/2000/svg">
<path d="M7.2666 14.4859L5.12443 13.6792C3.16652 12.9417 0.981472 13.9315 0.244073 15.8878C-0.493425 17.8461 0.496806 20.0297 2.45451 20.7672L7.2666 22.5811V14.4859Z" fill="#FF5112"/>
<path d="M35.8587 16.0458C35.837 16.1229 35.8158 16.1961 35.7946 16.2712V42.5435C35.7946 43.2715 35.4957 43.9406 35.0186 44.4162C34.5421 44.8947 33.8739 45.1922 33.1461 45.1922H13.7425C13.8369 45.0382 13.9231 44.8764 13.9895 44.7002C14.1157 44.3633 14.1754 44.0204 14.1754 43.6835C14.1754 43.103 13.9968 42.5359 13.6748 42.0602C13.3513 41.5846 12.8878 41.2043 12.3076 40.9857L9.32157 39.8612H9.32059C8.98466 39.7342 8.64286 39.6744 8.30536 39.6744C7.72392 39.6744 7.15634 39.8525 6.68164 40.1752C6.20605 40.4986 5.8248 40.9627 5.60625 41.5424C5.48066 41.8773 5.41992 42.2202 5.41992 42.5571C5.41992 43.1406 5.59961 43.7077 5.92158 44.1823C6.24511 44.657 6.70869 45.0391 7.28876 45.2568L10.2753 46.3813C10.6118 46.5085 10.9546 46.568 11.291 46.568C11.8726 46.568 12.44 46.3889 12.9148 46.0674C12.9981 46.0105 13.0746 45.9441 13.1521 45.8787C15.5398 47.8851 19.2735 49.8608 24.8374 49.9936C36.4562 50.269 39.5464 41.6598 41.2254 32.2226C41.2254 32.2226 45.2343 14.1436 45.5064 13.1884C46.8666 8.41096 38.4428 6.97073 35.8587 16.0458Z" fill="#FF5112"/>
<path d="M11.791 24.2439V4.29979H31.2714V36.2026H14.582C14.5439 36.5415 14.4665 36.8795 14.3414 37.2116C14.0256 38.053 13.4642 38.7367 12.7725 39.2064C12.5905 39.3296 12.4004 39.4375 12.2035 39.5308L12.775 39.7456C13.6159 40.0614 14.3011 40.6236 14.7708 41.3149C15.1525 41.8772 15.3928 42.526 15.4703 43.2058H33.147C33.3328 43.2058 33.4916 43.1327 33.6149 43.0122C33.7361 42.889 33.8084 42.7292 33.8084 42.5433V0.6624C33.8084 0.475682 33.7361 0.317675 33.6149 0.194433C33.4916 0.0721677 33.3328 0.000878903 33.147 0H9.91543C9.72959 0.000878903 9.57031 0.0721677 9.44746 0.194433C9.32617 0.317675 9.25488 0.475584 9.25391 0.6624V23.1838L10.9879 23.8346C11.2749 23.9444 11.5426 24.0821 11.791 24.2439ZM21.531 41.0877C20.8907 41.0877 20.3723 40.5678 20.3723 39.9286C20.3723 39.2882 20.8907 38.7694 21.531 38.7694C22.1708 38.7694 22.6901 39.2882 22.6901 39.9286C22.6901 40.5678 22.1708 41.0877 21.531 41.0877Z" fill="#FF5112"/>
<path d="M9.38797 38.4267C9.72449 38.5528 10.0672 38.6125 10.4036 38.6125C10.9856 38.6125 11.5527 38.4344 12.0273 38.1118C12.5029 37.7884 12.8833 37.3234 13.1022 36.7447C13.2284 36.4086 13.2881 36.066 13.2881 35.7289C13.2881 35.1473 13.11 34.5793 12.7875 34.1057C12.4645 33.6301 12.0005 33.2489 11.4214 33.0303L8.43426 31.9048C8.09833 31.7788 7.75594 31.719 7.41806 31.719C6.83661 31.719 6.26943 31.8971 5.79482 32.2197C5.31972 32.5431 4.93848 33.0081 4.71992 33.5878C4.59287 33.9229 4.53359 34.2656 4.5332 34.6036C4.5332 35.185 4.71221 35.7521 5.03476 36.2278C5.35781 36.7034 5.82187 37.0827 6.40234 37.3023L9.38797 38.4267Z" fill="#FF5112"/>
<path d="M8.48719 30.4701C8.82371 30.5992 9.16639 30.657 9.50281 30.657C10.0844 30.657 10.6528 30.4798 11.1275 30.1562C11.6021 29.8327 11.9835 29.3697 12.2014 28.7909C12.3286 28.452 12.3873 28.1102 12.3873 27.7724C12.3882 27.1928 12.2097 26.6247 11.8877 26.1492C11.5642 25.6745 11.0997 25.2942 10.5195 25.0747L7.53348 23.9501C7.19647 23.823 6.85468 23.7634 6.51727 23.7634C5.93583 23.7634 5.36865 23.9415 4.89365 24.266C4.41894 24.5875 4.03769 25.0526 3.81816 25.6331C3.69258 25.9681 3.63281 26.311 3.63281 26.6479C3.63281 27.2293 3.81142 27.7964 4.13398 28.2721C4.45703 28.7468 4.92158 29.1281 5.50175 29.3475L8.48719 30.4701Z" fill="#FF5112"/>
<path d="M19.9592 18.4125L21.012 17.7346C21.3495 17.519 21.4476 17.0704 21.2305 16.7334L19.7416 14.4111C19.5255 14.0742 19.0767 13.9779 18.7393 14.1926C18.7316 14.1973 18.6138 14.2725 17.3395 15.0909C15.8548 16.044 16.6525 20.1272 18.7716 23.4305C20.8911 26.7338 24.2724 29.16 25.7561 28.2069C27.0309 27.3895 27.1478 27.3143 27.156 27.3076C27.4929 27.0929 27.5912 26.6424 27.3751 26.3054L25.885 23.9851C25.6694 23.6481 25.2203 23.5499 24.8828 23.7675L23.8296 24.4433C23.5224 24.6397 23.1157 24.5772 22.8812 24.298C22.8812 24.298 22.1735 23.573 21.1169 21.9256C20.0607 20.2803 19.6958 19.3329 19.6958 19.3329C19.539 19.0037 19.6521 18.6089 19.9592 18.4125Z" fill="#FF5112"/>
</svg>
