<svg width="118" height="31" viewBox="0 0 118 31" fill="none" xmlns="http://www.w3.org/2000/svg">
<rect width="42.6319" height="17.0528" fill="#FF5112"/>
<path d="M6.92828 10.8846C7.21087 11.1965 7.58116 11.3524 8.03915 11.3524C8.49714 11.3524 8.86742 11.1965 9.15001 10.8846C9.4326 10.5631 9.5739 10.0856 9.5739 9.4522C9.5739 8.81881 9.4326 8.34621 9.15001 8.03438C8.86742 7.71282 8.49714 7.55203 8.03915 7.55203C7.58116 7.55203 7.21087 7.71282 6.92828 8.03438C6.64569 8.34621 6.5044 8.81881 6.5044 9.4522C6.5044 10.0856 6.64569 10.5631 6.92828 10.8846ZM7.52756 13.5449C6.47517 13.5449 5.63714 13.1941 5.0135 12.4925C4.3996 11.7909 4.09265 10.7774 4.09265 9.4522C4.09265 8.12696 4.3996 7.11353 5.0135 6.41193C5.63714 5.71034 6.47517 5.35954 7.52756 5.35954C8.37533 5.35954 9.03308 5.65187 9.50081 6.23654H9.5739V3.16704H11.9856V13.3987H9.86623L9.64698 12.5948H9.5739C9.0477 13.2282 8.36559 13.5449 7.52756 13.5449Z" fill="white"/>
<path d="M17.319 13.5449C16.0327 13.5449 15.0388 13.1941 14.3372 12.4925C13.6454 11.7811 13.2994 10.7677 13.2994 9.4522C13.2994 8.15619 13.6551 7.15251 14.3664 6.44117C15.0778 5.72008 16.062 5.35954 17.319 5.35954C18.5273 5.35954 19.4725 5.73957 20.1546 6.49963C20.8465 7.24996 21.1924 8.20978 21.1924 9.37912L21.1193 10.183H15.7112C15.9061 11.06 16.4176 11.4985 17.2459 11.4985C17.8208 11.4985 18.2642 11.3036 18.576 10.9139H21.0463C20.9683 11.2257 20.8465 11.5229 20.6808 11.8055C20.5152 12.0783 20.2911 12.356 20.0085 12.6386C19.7356 12.9115 19.3653 13.1307 18.8976 13.2964C18.4299 13.462 17.9037 13.5449 17.319 13.5449ZM15.7112 8.5752H18.7807C18.7027 8.25363 18.5273 7.98079 18.2545 7.75667C17.9914 7.5228 17.6552 7.40587 17.2459 7.40587C16.8269 7.40587 16.4859 7.51306 16.2228 7.72743C15.9597 7.94181 15.7891 8.2244 15.7112 8.5752Z" fill="white"/>
<path d="M22.4291 13.3987V5.5057H24.5485L24.7678 6.30962H24.8409C25.2891 5.67623 25.8738 5.35954 26.5949 5.35954C26.9359 5.35954 27.2429 5.41313 27.5157 5.52032C27.7983 5.61776 28.0176 5.74444 28.1735 5.90035C28.3391 6.05626 28.4609 6.18781 28.5389 6.295C28.6266 6.40219 28.685 6.48989 28.7143 6.5581H28.7874C28.8361 6.45091 28.9238 6.31936 29.0505 6.16345C29.1869 6.00754 29.4402 5.83701 29.8105 5.65187C30.1808 5.45698 30.595 5.35954 31.0529 5.35954C31.813 5.35954 32.4756 5.63725 33.0408 6.19268C33.6157 6.73837 33.9032 7.50818 33.9032 8.50212V13.3987H31.4914V8.94062C31.4914 8.48263 31.394 8.1367 31.1991 7.90283C31.0042 7.66897 30.7363 7.55203 30.3952 7.55203C30.0834 7.55203 29.8349 7.66897 29.6497 7.90283C29.4646 8.1367 29.372 8.48263 29.372 8.94062V13.3987H26.9603V8.94062C26.9603 8.48263 26.8628 8.1367 26.668 7.90283C26.4731 7.66897 26.2051 7.55203 25.864 7.55203C25.5522 7.55203 25.3037 7.66897 25.1186 7.90283C24.9334 8.1367 24.8409 8.48263 24.8409 8.94062V13.3987H22.4291Z" fill="white"/>
<path d="M35.4328 13.3987V5.5057H37.8446V13.3987H35.4328ZM37.6107 4.55562C37.3671 4.79923 37.0406 4.92104 36.6314 4.92104C36.2221 4.92104 35.8957 4.79923 35.6521 4.55562C35.4084 4.30226 35.2866 3.98557 35.2866 3.60554C35.2866 3.22551 35.4084 2.91368 35.6521 2.67007C35.8957 2.41672 36.2221 2.29004 36.6314 2.29004C37.0406 2.29004 37.3671 2.41672 37.6107 2.67007C37.864 2.91368 37.9907 3.22551 37.9907 3.60554C37.9907 3.98557 37.864 4.30226 37.6107 4.55562Z" fill="white"/>
<path d="M40.8467 13.3987L38.7273 5.5057H41.2121L42.3814 10.4023L43.6238 5.5057H45.9625L47.2049 10.4023L48.3742 5.5057H50.8591L48.7397 13.3987H46.0356L44.7932 9.0137L43.5508 13.3987H40.8467Z" fill="white"/>
<path d="M55.2452 13.5449C53.959 13.5449 52.965 13.1941 52.2634 12.4925C51.5716 11.7811 51.2256 10.7677 51.2256 9.4522C51.2256 8.15619 51.5813 7.15251 52.2927 6.44117C53.004 5.72008 53.9882 5.35954 55.2452 5.35954C56.4535 5.35954 57.3987 5.73957 58.0808 6.49963C58.7727 7.24996 59.1186 8.20978 59.1186 9.37912L59.0455 10.183H53.6374C53.8323 11.06 54.3439 11.4985 55.1721 11.4985C55.7471 11.4985 56.1904 11.3036 56.5023 10.9139H58.9725C58.8945 11.2257 58.7727 11.5229 58.607 11.8055C58.4414 12.0783 58.2173 12.356 57.9347 12.6386C57.6618 12.9115 57.2915 13.1307 56.8238 13.2964C56.3561 13.462 55.8299 13.5449 55.2452 13.5449ZM53.6374 8.5752H56.7069C56.6289 8.25363 56.4535 7.98079 56.1807 7.75667C55.9176 7.5228 55.5814 7.40587 55.1721 7.40587C54.7531 7.40587 54.4121 7.51306 54.149 7.72743C53.8859 7.94181 53.7153 8.2244 53.6374 8.5752Z" fill="white"/>
<path d="M63.264 10.8846C63.5466 11.1965 63.9169 11.3524 64.3749 11.3524C64.8329 11.3524 65.2032 11.1965 65.4858 10.8846C65.7684 10.5631 65.9097 10.0856 65.9097 9.4522C65.9097 8.81881 65.7684 8.34621 65.4858 8.03438C65.2032 7.71282 64.8329 7.55203 64.3749 7.55203C63.9169 7.55203 63.5466 7.71282 63.264 8.03438C62.9815 8.34621 62.8402 8.81881 62.8402 9.4522C62.8402 10.0856 62.9815 10.5631 63.264 10.8846ZM64.8865 13.5449C64.0485 13.5449 63.3664 13.2282 62.8402 12.5948H62.7671L62.5478 13.3987H60.4284V3.16704H62.8402V6.23654H62.9132C63.381 5.65187 64.0387 5.35954 64.8865 5.35954C65.9389 5.35954 66.772 5.71034 67.3859 6.41193C68.0096 7.11353 68.3214 8.12696 68.3214 9.4522C68.3214 10.7774 68.0096 11.7909 67.3859 12.4925C66.772 13.1941 65.9389 13.5449 64.8865 13.5449Z" fill="white"/>
<path d="M71.4477 13.0917C71.1943 13.3451 70.8825 13.4718 70.5122 13.4718C70.1419 13.4718 69.8301 13.3451 69.5767 13.0917C69.3234 12.8286 69.1967 12.5168 69.1967 12.1563C69.1967 11.7957 69.3234 11.4888 69.5767 11.2354C69.8301 10.9723 70.1419 10.8408 70.5122 10.8408C70.8825 10.8408 71.1943 10.9723 71.4477 11.2354C71.701 11.4888 71.8277 11.7957 71.8277 12.1563C71.8277 12.5168 71.701 12.8286 71.4477 13.0917Z" fill="white"/>
<path d="M76.143 13.5449C75.4999 13.5449 74.9396 13.4669 74.4621 13.311C73.9846 13.1453 73.6143 12.9212 73.3512 12.6386C73.0882 12.356 72.8884 12.0637 72.752 11.7616C72.6155 11.4596 72.5278 11.1282 72.4889 10.7677H74.9737C75.0127 10.9626 75.1394 11.1331 75.3537 11.2793C75.5681 11.4254 75.8312 11.4985 76.143 11.4985C76.9226 11.4985 77.3124 11.328 77.3124 10.9869C77.3124 10.8213 77.2003 10.6897 76.9762 10.5923C76.7521 10.4949 76.4695 10.4315 76.1284 10.4023C75.7971 10.373 75.4366 10.3097 75.0468 10.2123C74.657 10.1148 74.2916 9.99301 73.9505 9.84685C73.6192 9.70068 73.3415 9.45707 73.1174 9.11602C72.8933 8.77496 72.7812 8.35108 72.7812 7.84437C72.7812 7.11353 73.0784 6.51912 73.6728 6.06114C74.2672 5.5934 75.0906 5.35954 76.143 5.35954C77.3124 5.35954 78.1796 5.61776 78.7448 6.13422C79.31 6.64093 79.6364 7.2597 79.7241 7.99053H77.2393C77.2198 7.82488 77.1175 7.68846 76.9323 7.58127C76.7569 7.46433 76.4938 7.40587 76.143 7.40587C75.5584 7.40587 75.266 7.57639 75.266 7.91745C75.266 8.07336 75.3781 8.19517 75.6022 8.28287C75.8263 8.37057 76.1041 8.4339 76.4354 8.47288C76.7764 8.50212 77.1418 8.57033 77.5316 8.67752C77.9214 8.77496 78.2819 8.89677 78.6132 9.04293C78.9543 9.1891 79.2369 9.43758 79.461 9.78838C79.6851 10.1294 79.7972 10.5533 79.7972 11.06C79.7972 11.3524 79.7436 11.6301 79.6364 11.8932C79.5292 12.1563 79.3489 12.4194 79.0956 12.6825C78.852 12.9456 78.4768 13.1551 77.9701 13.311C77.4634 13.4669 76.8544 13.5449 76.143 13.5449Z" fill="white"/>
<path d="M84.3289 13.3987C83.3935 13.3987 82.7211 13.2038 82.3118 12.814C81.9026 12.4145 81.6979 11.8055 81.6979 10.9869V7.6982H80.4555V5.5057H81.6979L82.0633 3.45937H84.1097V5.5057H85.9368V7.6982H84.1097V10.5484C84.1097 10.7336 84.173 10.8895 84.2997 11.0162C84.4264 11.1429 84.5823 11.2062 84.7674 11.2062H85.9368V13.3987H84.3289Z" fill="white"/>
<path d="M90.0962 13.5449C89.3264 13.5449 88.6687 13.2769 88.123 12.7409C87.587 12.1953 87.3191 11.3913 87.3191 10.3292V5.5057H89.7308V9.96378C89.7308 10.4023 89.838 10.7433 90.0524 10.9869C90.2667 11.2306 90.5737 11.3524 90.9732 11.3524C91.3435 11.3524 91.6407 11.2306 91.8648 10.9869C92.0987 10.7336 92.2156 10.3925 92.2156 9.96378V5.5057H94.6274V13.3987H92.508L92.2887 12.5948H92.2156C91.6602 13.2282 90.9537 13.5449 90.0962 13.5449Z" fill="white"/>
<path d="M98.7106 10.8846C98.9932 11.1965 99.3634 11.3524 99.8214 11.3524C100.279 11.3524 100.65 11.1965 100.932 10.8846C101.215 10.5631 101.356 10.0856 101.356 9.4522C101.356 8.81881 101.215 8.34621 100.932 8.03438C100.65 7.71282 100.279 7.55203 99.8214 7.55203C99.3634 7.55203 98.9932 7.71282 98.7106 8.03438C98.428 8.34621 98.2867 8.81881 98.2867 9.4522C98.2867 10.0856 98.428 10.5631 98.7106 10.8846ZM99.3099 13.5449C98.2575 13.5449 97.4194 13.1941 96.7958 12.4925C96.1819 11.7909 95.8749 10.7774 95.8749 9.4522C95.8749 8.12696 96.1819 7.11353 96.7958 6.41193C97.4194 5.71034 98.2575 5.35954 99.3099 5.35954C100.158 5.35954 100.815 5.65187 101.283 6.23654H101.356V3.16704H103.768V13.3987H101.649L101.429 12.5948H101.356C100.83 13.2282 100.148 13.5449 99.3099 13.5449Z" fill="white"/>
<path d="M105.447 13.3987V5.5057H107.859V13.3987H105.447ZM107.625 4.55562C107.381 4.79923 107.055 4.92104 106.646 4.92104C106.236 4.92104 105.91 4.79923 105.666 4.55562C105.423 4.30226 105.301 3.98557 105.301 3.60554C105.301 3.22551 105.423 2.91368 105.666 2.67007C105.91 2.41672 106.236 2.29004 106.646 2.29004C107.055 2.29004 107.381 2.41672 107.625 2.67007C107.878 2.91368 108.005 3.22551 108.005 3.60554C108.005 3.98557 107.878 4.30226 107.625 4.55562Z" fill="white"/>
<path d="M115.962 12.4778C115.27 13.1892 114.301 13.5449 113.053 13.5449C111.806 13.5449 110.837 13.1892 110.145 12.4778C109.453 11.7665 109.107 10.758 109.107 9.4522C109.107 8.14644 109.453 7.1379 110.145 6.42655C110.837 5.71521 111.806 5.35954 113.053 5.35954C114.301 5.35954 115.27 5.71521 115.962 6.42655C116.654 7.1379 117 8.14644 117 9.4522C117 10.758 116.654 11.7665 115.962 12.4778ZM111.943 10.8846C112.225 11.1965 112.596 11.3524 113.053 11.3524C113.511 11.3524 113.882 11.1965 114.164 10.8846C114.447 10.5631 114.588 10.0856 114.588 9.4522C114.588 8.81881 114.447 8.34621 114.164 8.03438C113.882 7.71282 113.511 7.55203 113.053 7.55203C112.596 7.55203 112.225 7.71282 111.943 8.03438C111.66 8.34621 111.519 8.81881 111.519 9.4522C111.519 10.0856 111.66 10.5631 111.943 10.8846Z" fill="white"/>
<path d="M1.705 28L0.11 22.28H0.935L2.2 26.9H2.255L3.52 22.28H4.455L5.72 26.9H5.775L7.04 22.28H7.865L6.27 28H5.225L4.015 23.545H3.96L2.75 28H1.705ZM11.5483 28.11C10.7563 28.11 10.1183 27.8497 9.63428 27.329C9.15028 26.8083 8.90828 26.0787 8.90828 25.14C8.90828 24.2013 9.14661 23.4717 9.62328 22.951C10.1073 22.4303 10.7306 22.17 11.4933 22.17C11.9113 22.17 12.2889 22.2543 12.6263 22.423C12.9709 22.5843 13.2459 22.797 13.4513 23.061C13.6566 23.325 13.8106 23.6073 13.9133 23.908C14.0233 24.2087 14.0783 24.5093 14.0783 24.81L14.0233 25.36H9.73328C9.76261 25.998 9.94228 26.4893 10.2723 26.834C10.6096 27.1713 11.0349 27.34 11.5483 27.34C12.2083 27.34 12.7033 27.065 13.0333 26.515H13.9133C13.7226 27.0283 13.4183 27.4243 13.0003 27.703C12.5896 27.9743 12.1056 28.11 11.5483 28.11ZM9.73328 24.645H13.2533C13.2019 24.1097 13.0149 23.6917 12.6923 23.391C12.3696 23.0903 11.9699 22.94 11.4933 22.94C11.0166 22.94 10.6169 23.0903 10.2943 23.391C9.97161 23.6917 9.78461 24.1097 9.73328 24.645ZM17.2416 26.768C17.5642 27.1493 17.9932 27.34 18.5286 27.34C19.0639 27.34 19.4892 27.1493 19.8046 26.768C20.1272 26.3867 20.2886 25.844 20.2886 25.14C20.2886 24.436 20.1272 23.8933 19.8046 23.512C19.4892 23.1307 19.0639 22.94 18.5286 22.94C17.9932 22.94 17.5642 23.1307 17.2416 23.512C16.9262 23.8933 16.7686 24.436 16.7686 25.14C16.7686 25.844 16.9262 26.3867 17.2416 26.768ZM18.6386 28.11C17.8026 28.11 17.1792 27.8167 16.7686 27.23H16.7136L16.6036 28H15.9436V20.3H16.7686V22.995H16.8236C17.2489 22.445 17.8539 22.17 18.6386 22.17C19.3719 22.17 19.9659 22.4303 20.4206 22.951C20.8826 23.4717 21.1136 24.2013 21.1136 25.14C21.1136 26.0787 20.8826 26.8083 20.4206 27.329C19.9659 27.8497 19.3719 28.11 18.6386 28.11ZM22.6518 25.305V24.535H25.9518V25.305H22.6518ZM27.763 28V22.28H28.588V28H27.763ZM28.588 21.29C28.478 21.4 28.3423 21.455 28.181 21.455C28.0196 21.455 27.8803 21.4 27.763 21.29C27.653 21.18 27.598 21.0443 27.598 20.883C27.598 20.7217 27.653 20.586 27.763 20.476C27.8803 20.3587 28.0196 20.3 28.181 20.3C28.3423 20.3 28.478 20.3587 28.588 20.476C28.698 20.586 28.753 20.7217 28.753 20.883C28.753 21.037 28.698 21.1727 28.588 21.29ZM29.9613 29.32V27.23H30.5663C30.8963 26.6653 31.0613 25.7853 31.0613 24.59V22.28H34.9663V27.23H35.7363V29.32H34.9663V28H30.7313V29.32H29.9613ZM31.3913 27.23H34.1413V23.05H31.8863V24.59C31.8863 25.7853 31.7213 26.6653 31.3913 27.23ZM39.6391 28.11C38.8471 28.11 38.2091 27.8497 37.7251 27.329C37.2411 26.8083 36.9991 26.0787 36.9991 25.14C36.9991 24.2013 37.2374 23.4717 37.7141 22.951C38.1981 22.4303 38.8214 22.17 39.5841 22.17C40.0021 22.17 40.3798 22.2543 40.7171 22.423C41.0618 22.5843 41.3368 22.797 41.5421 23.061C41.7474 23.325 41.9014 23.6073 42.0041 23.908C42.1141 24.2087 42.1691 24.5093 42.1691 24.81L42.1141 25.36H37.8241C37.8534 25.998 38.0331 26.4893 38.3631 26.834C38.7004 27.1713 39.1258 27.34 39.6391 27.34C40.2991 27.34 40.7941 27.065 41.1241 26.515H42.0041C41.8134 27.0283 41.5091 27.4243 41.0911 27.703C40.6804 27.9743 40.1964 28.11 39.6391 28.11ZM37.8241 24.645H41.3441C41.2928 24.1097 41.1058 23.6917 40.7831 23.391C40.4604 23.0903 40.0608 22.94 39.5841 22.94C39.1074 22.94 38.7078 23.0903 38.3851 23.391C38.0624 23.6917 37.8754 24.1097 37.8241 24.645ZM43.9794 28V22.28H44.8044V28H43.9794ZM43.8144 21.015C43.7044 21.125 43.5687 21.18 43.4074 21.18C43.246 21.18 43.1104 21.125 43.0004 21.015C42.883 20.905 42.8244 20.7693 42.8244 20.608C42.8244 20.4467 42.883 20.311 43.0004 20.201C43.1104 20.0837 43.246 20.025 43.4074 20.025C43.5687 20.025 43.7044 20.0837 43.8144 20.201C43.9244 20.311 43.9794 20.4467 43.9794 20.608C43.9794 20.762 43.9244 20.8977 43.8144 21.015ZM45.7944 21.015C45.6844 21.125 45.5487 21.18 45.3874 21.18C45.226 21.18 45.0867 21.125 44.9694 21.015C44.8594 20.905 44.8044 20.7693 44.8044 20.608C44.8044 20.4467 44.8594 20.311 44.9694 20.201C45.0867 20.0837 45.226 20.025 45.3874 20.025C45.5487 20.025 45.6844 20.0837 45.7944 20.201C45.9044 20.311 45.9594 20.4467 45.9594 20.608C45.9594 20.762 45.9044 20.8977 45.7944 21.015ZM50.6846 27.23H52.4996C52.7783 27.23 53.002 27.153 53.1706 26.999C53.3466 26.8377 53.4346 26.6213 53.4346 26.35C53.4346 26.0787 53.3466 25.866 53.1706 25.712C53.002 25.5507 52.7783 25.47 52.4996 25.47H50.6846V27.23ZM49.8596 28V22.28H52.4996C52.9983 22.28 53.398 22.423 53.6986 22.709C53.9993 22.995 54.1496 23.3837 54.1496 23.875C54.1496 24.4397 53.9113 24.843 53.4346 25.085C53.684 25.195 53.882 25.3673 54.0286 25.602C54.1826 25.8293 54.2596 26.0787 54.2596 26.35C54.2596 26.8707 54.102 27.2777 53.7866 27.571C53.4786 27.857 53.0496 28 52.4996 28H49.8596ZM50.6846 24.7H52.4996C52.771 24.7 52.9836 24.6267 53.1376 24.48C53.299 24.326 53.3796 24.1243 53.3796 23.875C53.3796 23.6257 53.299 23.4277 53.1376 23.281C52.9836 23.127 52.771 23.05 52.4996 23.05H50.6846V24.7ZM59.0378 30.2V22.28H59.6978L59.8078 23.05H59.8628C60.2734 22.4633 60.8968 22.17 61.7328 22.17C62.4661 22.17 63.0601 22.4303 63.5148 22.951C63.9768 23.4717 64.2078 24.2013 64.2078 25.14C64.2078 26.0787 63.9768 26.8083 63.5148 27.329C63.0601 27.8497 62.4661 28.11 61.7328 28.11C60.9481 28.11 60.3431 27.835 59.9178 27.285H59.8628V30.2H59.0378ZM60.3358 26.768C60.6584 27.1493 61.0874 27.34 61.6228 27.34C62.1581 27.34 62.5834 27.1493 62.8988 26.768C63.2214 26.3867 63.3828 25.844 63.3828 25.14C63.3828 24.436 63.2214 23.8933 62.8988 23.512C62.5834 23.1307 62.1581 22.94 61.6228 22.94C61.0874 22.94 60.6584 23.1307 60.3358 23.512C60.0204 23.8933 59.8628 24.436 59.8628 25.14C59.8628 25.844 60.0204 26.3867 60.3358 26.768ZM68.3873 28.11C67.5953 28.11 66.9573 27.8497 66.4733 27.329C65.9893 26.8083 65.7473 26.0787 65.7473 25.14C65.7473 24.2013 65.9857 23.4717 66.4623 22.951C66.9463 22.4303 67.5697 22.17 68.3323 22.17C68.7503 22.17 69.128 22.2543 69.4653 22.423C69.81 22.5843 70.085 22.797 70.2903 23.061C70.4957 23.325 70.6497 23.6073 70.7523 23.908C70.8623 24.2087 70.9173 24.5093 70.9173 24.81L70.8623 25.36H66.5723C66.6017 25.998 66.7813 26.4893 67.1113 26.834C67.4487 27.1713 67.874 27.34 68.3873 27.34C69.0473 27.34 69.5423 27.065 69.8723 26.515H70.7523C70.5617 27.0283 70.2573 27.4243 69.8393 27.703C69.4287 27.9743 68.9447 28.11 68.3873 28.11ZM66.5723 24.645H70.0923C70.041 24.1097 69.854 23.6917 69.5313 23.391C69.2087 23.0903 68.809 22.94 68.3323 22.94C67.8557 22.94 67.456 23.0903 67.1333 23.391C66.8107 23.6917 66.6237 24.1097 66.5723 24.645ZM74.3776 27.34C74.913 27.34 75.3383 27.1897 75.6536 26.889C75.9763 26.581 76.1376 26.1997 76.1376 25.745V25.36H74.5426C74.11 25.36 73.78 25.448 73.5526 25.624C73.3326 25.8 73.2226 26.042 73.2226 26.35C73.2226 26.6507 73.3253 26.8927 73.5306 27.076C73.736 27.252 74.0183 27.34 74.3776 27.34ZM74.3776 28.11C73.7836 28.11 73.3033 27.945 72.9366 27.615C72.5773 27.2777 72.3976 26.856 72.3976 26.35C72.3976 25.8367 72.5883 25.415 72.9696 25.085C73.351 24.755 73.8753 24.59 74.5426 24.59H76.1376V24.205C76.1376 23.8237 76.0093 23.5193 75.7526 23.292C75.5033 23.0573 75.1733 22.94 74.7626 22.94C74.066 22.94 73.626 23.215 73.4426 23.765H72.5626C72.6946 23.2517 72.955 22.8593 73.3436 22.588C73.7323 22.3093 74.2053 22.17 74.7626 22.17C75.4446 22.17 75.98 22.357 76.3686 22.731C76.7646 23.0977 76.9626 23.589 76.9626 24.205V28H76.3026L76.1926 27.23H76.1376C76.013 27.45 75.7893 27.6517 75.4666 27.835C75.144 28.0183 74.781 28.11 74.3776 28.11ZM78.3325 28.055V27.23H78.4425C78.8018 27.23 79.0475 27.043 79.1795 26.669C79.3115 26.295 79.3775 25.602 79.3775 24.59V22.28H83.3925V28H82.5675V23.05H80.2025V24.59C80.2025 25.8367 80.0741 26.7277 79.8175 27.263C79.5681 27.791 79.1098 28.055 78.4425 28.055H78.3325ZM86.3079 27.23H87.8479C88.1852 27.23 88.4529 27.1383 88.6509 26.955C88.8489 26.7643 88.9479 26.5077 88.9479 26.185C88.9479 25.8623 88.8489 25.6093 88.6509 25.426C88.4529 25.2353 88.1852 25.14 87.8479 25.14H86.3079V27.23ZM85.4829 28V22.28H86.3079V24.37H87.9029C88.4602 24.37 88.9112 24.5387 89.2559 24.876C89.6006 25.206 89.7729 25.6423 89.7729 26.185C89.7729 26.7277 89.6006 27.1677 89.2559 27.505C88.9112 27.835 88.4602 28 87.9029 28H85.4829ZM91.4792 28V22.28H92.3042V24.755H95.2742V22.28H96.0992V28H95.2742V25.525H92.3042V28H91.4792ZM98.1845 28V22.28H99.0095V28H98.1845ZM99.0095 21.29C98.8995 21.4 98.7638 21.455 98.6025 21.455C98.4411 21.455 98.3018 21.4 98.1845 21.29C98.0745 21.18 98.0195 21.0443 98.0195 20.883C98.0195 20.7217 98.0745 20.586 98.1845 20.476C98.3018 20.3587 98.4411 20.3 98.6025 20.3C98.7638 20.3 98.8995 20.3587 99.0095 20.476C99.1195 20.586 99.1745 20.7217 99.1745 20.883C99.1745 21.037 99.1195 21.1727 99.0095 21.29ZM103.463 28.11C102.671 28.11 102.033 27.8497 101.549 27.329C101.065 26.8083 100.823 26.0787 100.823 25.14C100.823 24.2013 101.065 23.4717 101.549 22.951C102.033 22.4303 102.671 22.17 103.463 22.17C104.02 22.17 104.504 22.3093 104.915 22.588C105.333 22.8593 105.637 23.2517 105.828 23.765H104.948C104.618 23.215 104.123 22.94 103.463 22.94C102.92 22.94 102.48 23.1343 102.143 23.523C101.813 23.9043 101.648 24.4433 101.648 25.14C101.648 25.8367 101.813 26.3793 102.143 26.768C102.48 27.1493 102.92 27.34 103.463 27.34C104.123 27.34 104.618 27.065 104.948 26.515H105.828C105.637 27.0283 105.333 27.4243 104.915 27.703C104.504 27.9743 104.02 28.11 103.463 28.11ZM108.64 28V23.05H106.715V22.28H111.445V23.05H109.465V28H108.64ZM113.754 27.23H115.294C115.632 27.23 115.899 27.1383 116.097 26.955C116.295 26.7643 116.394 26.5077 116.394 26.185C116.394 25.8623 116.295 25.6093 116.097 25.426C115.899 25.2353 115.632 25.14 115.294 25.14H113.754V27.23ZM112.929 28V22.28H113.754V24.37H115.349C115.907 24.37 116.358 24.5387 116.702 24.876C117.047 25.206 117.219 25.6423 117.219 26.185C117.219 26.7277 117.047 27.1677 116.702 27.505C116.358 27.835 115.907 28 115.349 28H112.929Z" fill="#FFF5F5"/>
</svg>
