<svg width="201" height="70" viewBox="0 0 201 70" fill="none" xmlns="http://www.w3.org/2000/svg">
<path d="M43.6697 7.07825e-05L37.5747 6.09503L43.6397 12.16L49.7347 6.06508L43.6697 7.07825e-05Z" fill="#FF5112"/>
<path d="M51.3899 7.63502L45.2949 13.73L51.3599 19.795L57.4549 13.7L51.3899 7.63502Z" fill="#FF5112"/>
<path d="M43.6348 15.1798L37.5398 21.2748L43.6048 27.3398L49.6998 21.2448L43.6348 15.1798Z" fill="#FF5112"/>
<path d="M36.0552 19.8307L42.1501 13.7358L36.0851 7.67077L29.9902 13.7657L36.0552 19.8307Z" fill="#FF5112"/>
<path d="M105.352 23.8401H100.023L91.5158 35.529H84.0844V23.8401H79.3137V51.6721H84.0844V39.9833H91.4759L99.9835 51.6721H105.868L95.4918 37.3999L105.352 23.8401Z" fill="#FF5112"/>
<path d="M195.342 23.8401V35.529H177.308V23.8401H172.537V51.6721H177.308V39.9833H195.342V51.6721H200.113V23.8401H195.342Z" fill="#FF5112"/>
<path d="M73.9099 32.4573L65.4397 23.9871V23.9223H54.8993V24.0045L54.8221 23.9273L46.2921 32.4573L46.3021 32.4672H46.2871V51.6721H51.0578V42.5268H69.1989V51.6721H73.9697V32.4672H73.8999L73.9099 32.4573ZM51.0578 37.7561V34.4353L56.8026 28.6905H63.3969L69.1989 34.4926V37.7561H51.0578Z" fill="#FF5112"/>
<path d="M129.664 23.8501L129.646 23.8675V23.8451H112.143V23.8625L112.13 23.8501L107.09 28.8898L107.118 28.9172H107.021V46.595H107.12L107.09 46.6249L112.13 51.6646L112.143 51.6522V51.6696H129.646V51.6472L129.664 51.6646L134.703 46.6249L134.673 46.595H134.703V28.9172H134.676L134.703 28.8898L129.664 23.8501ZM127.681 46.9014H114.111L111.789 44.5796V30.9351L114.111 28.6133H127.681L129.93 30.8629V44.6468L127.681 46.9014Z" fill="#FF5112"/>
<path d="M166.972 34.8863H144.656V30.8579L146.903 28.6133H166.671V23.8401H144.957V23.8725L144.925 23.8401L139.885 28.8824L139.895 28.8899H139.885V34.8863V39.657H162.202V44.6569L159.957 46.9014H139.885V51.6721H161.9V51.6423L161.933 51.6721L166.972 46.6324L166.962 46.6224H166.972V38.8V34.8863Z" fill="#FF5112"/>
<path d="M41.0981 32.4572L32.628 23.9846V23.9198H26.9305V24.002L26.8533 23.9248L20.6775 30.103L14.5591 23.9846V23.9198H8.86413V24.002L8.7869 23.9248L0.254447 32.4572L0.2669 32.4672H0.251953V51.6721H5.02266V34.4353L10.7674 28.6905H12.5188L18.3208 34.4926V51.6721H23.0915V34.4353L28.8363 28.6905H30.5852L36.3872 34.4926V51.6721H41.1579V32.4672H41.0882L41.0981 32.4572Z" fill="#FF5112"/>
<path d="M0 58.3137H1.92821L1.02638 60.5384H0.901823L0 58.3137ZM0.30891 61.3431H1.60685V67.5263H0.30891V61.3431Z" fill="#FF5112"/>
<path d="M3.83398 61.343H5.13192V63.8292H8.3456V61.343H9.64353V67.5262H8.3456V65.0399H5.13192V67.5262H3.83398V61.343Z" fill="#FF5112"/>
<path d="M15.047 61.343C15.7221 61.343 16.2552 61.4849 16.6414 61.7689C17.03 62.0529 17.2218 62.4466 17.2218 62.9498C17.2218 63.2637 17.1446 63.5352 16.9926 63.7669C16.8407 63.9986 16.6189 64.1805 16.3299 64.31V64.3598C16.6937 64.4919 16.9677 64.6837 17.1595 64.9353C17.3489 65.1869 17.4435 65.4909 17.4435 65.8446C17.4435 66.3727 17.2392 66.7838 16.8307 67.0802C16.4221 67.3767 15.8566 67.5262 15.1317 67.5262H11.8682V61.343H15.047ZM15.6175 63.7096C15.8143 63.5651 15.9139 63.3733 15.9139 63.1342C15.9139 62.895 15.8217 62.7032 15.6349 62.5587C15.4505 62.4142 15.1964 62.3419 14.8751 62.3419H13.1437V63.9239H14.8253C15.1541 63.9264 15.4182 63.8541 15.6175 63.7096ZM15.8342 66.308C16.0285 66.1635 16.1257 65.9642 16.1257 65.7076C16.1257 65.461 16.026 65.2666 15.8292 65.1271C15.6324 64.9876 15.3559 64.9179 14.9996 64.9179H13.1437V66.5247H15.0221C15.3683 66.5247 15.6399 66.4525 15.8342 66.308Z" fill="#FF5112"/>
<path d="M20.0244 67.2348C19.5162 66.9582 19.1226 66.5771 18.8386 66.0913C18.5546 65.6055 18.4126 65.0599 18.4126 64.4595C18.4126 63.8492 18.5621 63.2986 18.8585 62.8078C19.155 62.3171 19.5586 61.9309 20.0693 61.6444C20.58 61.3604 21.1405 61.2184 21.7508 61.2184C22.3512 61.2184 22.8993 61.3555 23.3901 61.632C23.8808 61.9085 24.267 62.2872 24.546 62.7705C24.825 63.2538 24.967 63.7894 24.967 64.3848C24.967 64.4994 24.9595 64.6563 24.9421 64.8556H19.7006C19.7753 65.3339 20.0045 65.735 20.3931 66.0614C20.7817 66.3877 21.2576 66.5497 21.8281 66.5497C22.1818 66.5497 22.5107 66.4724 22.8121 66.3155C23.1135 66.1585 23.3303 65.9493 23.4623 65.6852H24.7478C24.6656 66.0489 24.4862 66.3778 24.2097 66.6742C23.9331 66.9707 23.5819 67.2074 23.1584 67.3842C22.7349 67.5611 22.269 67.6508 21.7683 67.6508C21.1106 67.6483 20.5326 67.5113 20.0244 67.2348ZM22.974 62.7406C22.6278 62.4765 22.2167 62.3445 21.7384 62.3445C21.2526 62.3445 20.8241 62.479 20.4529 62.7456C20.0817 63.0146 19.8426 63.3659 19.7354 63.8018H23.6666C23.552 63.3584 23.3203 63.0047 22.974 62.7406Z" fill="#FF5112"/>
<path d="M27.6304 67.2298C27.1322 66.9483 26.741 66.5671 26.4546 66.0788C26.1706 65.593 26.0286 65.045 26.0286 64.4346C26.0286 63.8342 26.1731 63.2862 26.462 62.7954C26.751 62.3046 27.1471 61.9185 27.6479 61.6395C28.1511 61.3604 28.7066 61.2184 29.317 61.2184C29.87 61.2184 30.3683 61.3256 30.8142 61.5398C31.2601 61.7541 31.6214 62.053 31.9029 62.4367C32.1819 62.8203 32.3563 63.2588 32.421 63.7545H31.1356C31.0285 63.3435 30.8142 63.0146 30.4928 62.7705C30.1715 62.5263 29.7803 62.4068 29.317 62.4068C28.9383 62.4068 28.597 62.4964 28.2981 62.6733C27.9966 62.8502 27.76 63.0943 27.5881 63.4033C27.4162 63.7122 27.329 64.0559 27.329 64.4346C27.329 64.8133 27.4162 65.1571 27.5881 65.4685C27.76 65.7774 27.9991 66.0215 28.2981 66.1984C28.5995 66.3753 28.9383 66.465 29.317 66.465C29.7779 66.465 30.1715 66.3404 30.4978 66.0938C30.8242 65.8471 31.0359 65.5158 31.1356 65.1048H32.421C32.3463 65.6005 32.167 66.0415 31.883 66.4276C31.599 66.8162 31.2327 67.1152 30.7893 67.3294C30.3434 67.5437 29.8526 67.6508 29.317 67.6508C28.6917 67.6483 28.1287 67.5088 27.6304 67.2298Z" fill="#FF5112"/>
<path d="M35.5373 62.5537H33.0759V61.343H39.2965V62.5537H36.8352V67.5237H35.5373V62.5537Z" fill="#FF5112"/>
<path d="M40.7415 61.343H42.0394V65.8197L45.3776 61.343H46.7254V67.5262H45.4275V63.0494L42.0892 67.5262H40.7415V61.343Z" fill="#FF5112"/>
<path d="M54.3688 67.5262H48.9529V61.343H50.2508V66.3628H53.4421V61.343H54.74V66.3628H55.6169V68.9462H54.3688V67.5262Z" fill="#FF5112"/>
<path d="M56.8298 58.3137H58.758L57.8562 60.5384H57.7317L56.8298 58.3137ZM57.1387 61.3431H58.4367V67.5263H57.1387V61.3431Z" fill="#FF5112"/>
<path d="M60.6611 61.3431H61.9591V65.8198L65.2973 61.3431H66.6451V67.5263H65.3471V63.0495L62.0089 67.5263H60.6611V61.3431ZM62.41 60.2868C62.0512 60.1024 61.7747 59.8458 61.5804 59.5195C61.3861 59.1931 61.2889 58.8244 61.2889 58.4134V58.3137H62.39V58.4009C62.39 58.7472 62.5046 59.0262 62.7363 59.2355C62.968 59.4447 63.2719 59.5519 63.6506 59.5519C64.0367 59.5519 64.3482 59.4472 64.5774 59.2355C64.809 59.0262 64.9236 58.7472 64.9236 58.4009V58.3137H66.0248V58.4134C66.0248 58.8269 65.9251 59.1956 65.7283 59.5195C65.5315 59.8458 65.2525 60.0999 64.8937 60.2868C64.535 60.4736 64.1214 60.5658 63.6506 60.5658C63.1798 60.5658 62.7687 60.4711 62.41 60.2868Z" fill="#FF5112"/>
<path d="M68.8723 61.343H70.1702V63.8292H73.3839V61.343H74.6819V67.5262H73.3839V65.0399H70.1702V67.5262H68.8723V61.343Z" fill="#FF5112"/>
<path d="M77.9407 67.2348C77.4325 66.9582 77.0389 66.5771 76.7524 66.0913C76.4659 65.6055 76.3264 65.0599 76.3264 64.4595C76.3264 63.8492 76.4759 63.2986 76.7724 62.8078C77.0688 62.3171 77.4724 61.9309 77.9831 61.6444C78.4938 61.3604 79.0543 61.2184 79.6647 61.2184C80.2651 61.2184 80.8131 61.3555 81.3039 61.632C81.7947 61.9085 82.1808 62.2872 82.4598 62.7705C82.7388 63.2538 82.8808 63.7894 82.8808 64.3848C82.8808 64.4994 82.8734 64.6563 82.8559 64.8556H77.6144C77.6891 65.3339 77.9183 65.735 78.3069 66.0614C78.6931 66.3877 79.1714 66.5497 79.7419 66.5497C80.0957 66.5497 80.4245 66.4724 80.7259 66.3155C81.0274 66.1585 81.2441 65.9493 81.3761 65.6852H82.6616C82.5794 66.0489 82.4 66.3778 82.1235 66.6742C81.847 66.9707 81.4957 67.2074 81.0722 67.3842C80.6487 67.5611 80.1828 67.6508 79.6821 67.6508C79.0269 67.6483 78.4489 67.5113 77.9407 67.2348ZM80.8903 62.7406C80.5441 62.4765 80.133 62.3445 79.6547 62.3445C79.1689 62.3445 78.7404 62.479 78.3692 62.7456C77.998 63.0146 77.7589 63.3659 77.6518 63.8018H81.5829C81.4683 63.3584 81.2366 63.0047 80.8903 62.7406Z" fill="#FF5112"/>
<path d="M88.8645 64.3724L86.6772 61.343H88.1495L89.9183 63.8293H90.9447V58.7472H92.2426V63.8293H93.3188L95.0876 61.343H96.535L94.3452 64.3848L96.5823 67.5263H95.0253L93.269 65.0276H92.2426V67.5263H90.9447V65.0276H89.9308L88.1744 67.5263H86.6174L88.8645 64.3724Z" fill="#FF5112"/>
<path d="M97.8682 61.343H99.1661V65.8197L102.504 61.343H103.852V67.5262H102.554V63.0494L99.2159 67.5262H97.8682V61.343Z" fill="#FF5112"/>
<path d="M109.255 61.343C109.93 61.343 110.463 61.4849 110.85 61.7689C111.238 62.0529 111.43 62.4466 111.43 62.9498C111.43 63.2637 111.353 63.5352 111.201 63.7669C111.049 63.9986 110.827 64.1805 110.538 64.31V64.3598C110.902 64.4919 111.176 64.6837 111.368 64.9353C111.557 65.1869 111.652 65.4909 111.652 65.8446C111.652 66.3727 111.448 66.7838 111.039 67.0802C110.63 67.3767 110.065 67.5262 109.34 67.5262H106.076V61.343H109.255ZM109.823 63.7096C110.02 63.5651 110.12 63.3733 110.12 63.1342C110.12 62.895 110.028 62.7032 109.841 62.5587C109.656 62.4142 109.402 62.3419 109.081 62.3419H107.349V63.9239H109.031C109.362 63.9264 109.626 63.8541 109.823 63.7096ZM110.04 66.308C110.234 66.1635 110.331 65.9642 110.331 65.7076C110.331 65.461 110.232 65.2666 110.035 65.1271C109.838 64.9876 109.562 64.9179 109.205 64.9179H107.349V66.5247H109.228C109.577 66.5247 109.846 66.4525 110.04 66.308Z" fill="#FF5112"/>
<path d="M112.248 67.5137V66.3279C112.412 66.3777 112.569 66.4026 112.718 66.4026C113.09 66.4026 113.336 66.2582 113.461 65.9692C113.643 65.4983 113.732 64.305 113.732 62.3843V61.3455H118.864V67.5287H117.566V62.5587H114.946V62.9922C114.946 63.9737 114.913 64.7634 114.846 65.3663C114.779 65.9692 114.637 66.4575 114.412 66.8386C114.099 67.3568 113.613 67.6184 112.953 67.6184C112.664 67.6109 112.429 67.5785 112.248 67.5137Z" fill="#FF5112"/>
<path d="M122.12 67.2348C121.614 66.9582 121.218 66.5771 120.934 66.0913C120.65 65.6055 120.508 65.0599 120.508 64.4595C120.508 63.8492 120.658 63.2986 120.954 62.8078C121.25 62.3171 121.654 61.9309 122.165 61.6444C122.675 61.3604 123.236 61.2184 123.846 61.2184C124.447 61.2184 124.995 61.3555 125.486 61.632C125.976 61.9085 126.362 62.2872 126.641 62.7705C126.92 63.2538 127.062 63.7894 127.062 64.3848C127.062 64.4994 127.055 64.6563 127.038 64.8556H121.796C121.871 65.3339 122.1 65.735 122.489 66.0614C122.877 66.3877 123.353 66.5497 123.924 66.5497C124.277 66.5497 124.606 66.4724 124.908 66.3155C125.209 66.1585 125.426 65.9493 125.558 65.6852H126.843C126.761 66.0489 126.582 66.3778 126.305 66.6742C126.029 66.9707 125.68 67.2074 125.254 67.3842C124.83 67.5611 124.365 67.6508 123.864 67.6508C123.206 67.6483 122.628 67.5113 122.12 67.2348ZM125.07 62.7406C124.723 62.4765 124.312 62.3445 123.834 62.3445C123.348 62.3445 122.92 62.479 122.548 62.7456C122.177 63.0146 121.938 63.3659 121.831 63.8018H125.762C125.647 63.3584 125.416 63.0047 125.07 62.7406Z" fill="#FF5112"/>
<path d="M128.645 61.343H129.943V63.8292H133.156V61.343H134.454V67.5262H133.156V65.0399H129.943V67.5262H128.645V61.343Z" fill="#FF5112"/>
<path d="M136.681 61.343H137.979V63.8292H141.193V61.343H142.491V67.5262H141.193V65.0399H137.979V67.5262H136.681V61.343Z" fill="#FF5112"/>
<path d="M144.593 64.4894C144.386 64.1805 144.284 63.8143 144.284 63.3957C144.284 62.7605 144.516 62.2597 144.977 61.8935C145.438 61.5273 146.073 61.343 146.88 61.343H149.588V67.5262H148.29V65.4609H146.746L145.298 67.5262H143.789L145.483 65.2019C145.096 65.035 144.8 64.7983 144.593 64.4894ZM148.29 62.4067H146.818C146.439 62.4067 146.138 62.4964 145.916 62.6783C145.694 62.8601 145.582 63.1042 145.582 63.4082C145.582 63.7146 145.694 63.9562 145.916 64.1381C146.138 64.32 146.439 64.4097 146.818 64.4097H148.29V62.4067Z" fill="#FF5112"/>
<path d="M156.106 61.343V62.2448C156.37 61.916 156.688 61.6619 157.065 61.485C157.441 61.3081 157.854 61.2184 158.308 61.2184C158.893 61.2184 159.421 61.358 159.89 61.6395C160.361 61.921 160.729 62.3046 160.996 62.7954C161.262 63.2862 161.397 63.8317 161.397 64.4346C161.397 65.0375 161.262 65.5831 160.996 66.0738C160.727 66.5646 160.358 66.9508 159.882 67.2298C159.409 67.5113 158.883 67.6508 158.305 67.6508C157.884 67.6508 157.496 67.5711 157.137 67.4091C156.778 67.2472 156.467 67.023 156.203 66.7365V70H154.905V61.3455H156.106V61.343ZM159.11 66.1959C159.406 66.019 159.641 65.7749 159.815 65.466C159.989 65.1571 160.074 64.8133 160.074 64.4321C160.074 64.0535 159.987 63.7097 159.815 63.4008C159.641 63.0919 159.406 62.8477 159.11 62.6708C158.814 62.494 158.485 62.4043 158.121 62.4043C157.757 62.4043 157.428 62.494 157.132 62.6708C156.835 62.8477 156.601 63.0919 156.434 63.4008C156.265 63.7097 156.18 64.0535 156.18 64.4321C156.18 64.8108 156.265 65.1546 156.434 65.466C156.604 65.7749 156.835 66.019 157.132 66.1959C157.428 66.3728 157.757 66.4625 158.121 66.4625C158.485 66.4625 158.814 66.3728 159.11 66.1959Z" fill="#FF5112"/>
<path d="M164.149 67.2298C163.644 66.9483 163.243 66.5646 162.951 66.0738C162.657 65.5831 162.513 65.0375 162.513 64.4346C162.513 63.8342 162.66 63.2862 162.951 62.7954C163.243 62.3046 163.646 61.9185 164.157 61.6395C164.668 61.3604 165.233 61.2184 165.851 61.2184C166.476 61.2184 167.044 61.358 167.55 61.6395C168.058 61.921 168.457 62.3046 168.748 62.7954C169.04 63.2862 169.187 63.8317 169.187 64.4346C169.187 65.0275 169.04 65.5706 168.748 66.0614C168.457 66.5522 168.053 66.9383 167.543 67.2248C167.032 67.5088 166.466 67.6508 165.848 67.6508C165.223 67.6483 164.655 67.5088 164.149 67.2298ZM167.296 65.892C167.675 65.5133 167.864 65.0275 167.864 64.4321C167.864 63.8392 167.675 63.3534 167.296 62.9723C166.917 62.5936 166.434 62.4043 165.848 62.4043C165.256 62.4043 164.77 62.5911 164.396 62.9673C164.02 63.3435 163.833 63.8317 163.833 64.4321C163.833 65.025 164.022 65.5133 164.401 65.892C164.78 66.2707 165.263 66.46 165.848 66.46C166.434 66.4625 166.917 66.2731 167.296 65.892Z" fill="#FF5112"/>
<path d="M171.902 67.2298C171.404 66.9483 171.013 66.5671 170.726 66.0788C170.442 65.593 170.3 65.045 170.3 64.4346C170.3 63.8342 170.445 63.2862 170.734 62.7954C171.023 62.3046 171.419 61.9185 171.92 61.6395C172.423 61.3604 172.978 61.2184 173.589 61.2184C174.142 61.2184 174.64 61.3256 175.086 61.5398C175.532 61.7541 175.893 62.053 176.175 62.4367C176.454 62.8203 176.628 63.2588 176.693 63.7545H175.407C175.3 63.3435 175.086 63.0146 174.765 62.7705C174.443 62.5263 174.052 62.4068 173.589 62.4068C173.21 62.4068 172.869 62.4964 172.567 62.6733C172.266 62.8502 172.029 63.0943 171.857 63.4033C171.683 63.7122 171.598 64.0559 171.598 64.4346C171.598 64.8133 171.685 65.1571 171.857 65.4685C172.032 65.7774 172.268 66.0215 172.567 66.1984C172.869 66.3753 173.208 66.465 173.589 66.465C174.05 66.465 174.443 66.3404 174.77 66.0938C175.096 65.8471 175.308 65.5158 175.407 65.1048H176.693C176.618 65.6005 176.439 66.0415 176.155 66.4276C175.871 66.8162 175.504 67.1152 175.061 67.3294C174.615 67.5437 174.124 67.6508 173.589 67.6508C172.963 67.6483 172.4 67.5088 171.902 67.2298Z" fill="#FF5112"/>
<path d="M177.251 67.5137V66.3279C177.415 66.3777 177.572 66.4026 177.722 66.4026C178.093 66.4026 178.34 66.2582 178.464 65.9692C178.646 65.4983 178.736 64.305 178.736 62.3843V61.3455H183.868V67.5287H182.57V62.5587H179.949V62.9922C179.949 63.9737 179.917 64.7634 179.849 65.3663C179.785 65.9692 179.64 66.4575 179.416 66.8386C179.102 67.3568 178.616 67.6184 177.956 67.6184C177.667 67.6109 177.43 67.5785 177.251 67.5137Z" fill="#FF5112"/>
<path d="M186.09 61.343H187.388V65.8197L190.726 61.343H192.074V67.5262H190.776V63.0494L187.437 67.5262H186.09V61.343Z" fill="#FF5112"/>
<path d="M194.301 61.343H195.599V63.8292H198.813V61.343H200.111V67.5262H198.813V65.0399H195.599V67.5262H194.301V61.343Z" fill="#FF5112"/>
</svg>
