<svg width="21" height="21" viewBox="0 0 21 21" fill="none" xmlns="http://www.w3.org/2000/svg">
<path d="M17.056 14.0405C16.657 13.8528 14.746 12.9142 14.389 12.7682C14.0319 12.6221 13.7799 12.5804 13.5069 12.9767C13.2339 13.373 12.4989 14.2282 12.2679 14.4994C12.0369 14.7705 11.8269 14.7914 11.4278 14.4994C10.2818 14.0426 9.22333 13.3935 8.29874 12.5804C7.46176 11.7977 6.75318 10.8899 6.19867 9.88971C5.96766 9.51426 6.19867 9.30568 6.36667 9.0971C6.53468 8.88852 6.74469 8.65908 6.95469 8.42964C7.10827 8.23121 7.23533 8.01387 7.33271 7.78303C7.3848 7.67568 7.41186 7.55804 7.41186 7.43887C7.41186 7.3197 7.3848 7.20206 7.33271 7.09471C7.33271 6.90698 6.45067 5.00888 6.11466 4.23713C5.77865 3.46537 5.48464 3.56966 5.25363 3.56966H4.4136C4.01344 3.58516 3.6358 3.75769 3.36357 4.0494C2.92414 4.46588 2.57608 4.96803 2.34118 5.52436C2.10629 6.0807 1.98963 6.67922 1.99852 7.28243C2.10594 8.76333 2.65418 10.1791 3.57357 11.3498C5.26071 13.8391 7.5689 15.8513 10.2728 17.1901C11.1968 17.5864 11.9109 17.8158 12.4779 18.0036C13.2741 18.2426 14.1157 18.2926 14.935 18.1496C15.4791 18.0399 15.9947 17.8204 16.4499 17.5047C16.9051 17.189 17.2901 16.7837 17.5811 16.3141C17.8232 15.7341 17.903 15.0999 17.8121 14.4785C17.7071 14.3325 17.4551 14.2282 17.056 14.0405Z" fill="#FF5112"/>
</svg>
