<svg width="19" height="24" viewBox="0 0 19 24" fill="none" xmlns="http://www.w3.org/2000/svg">
<path fill-rule="evenodd" clip-rule="evenodd" d="M18.7343 13.5722C19.0886 13.9265 19.0886 14.5009 18.7343 14.8552L10.2665 23.323C9.91222 23.6773 9.33778 23.6773 8.98347 23.323L0.51573 14.8552C0.161423 14.5009 0.161423 13.9265 0.51573 13.5722C0.870035 13.2179 1.44448 13.2179 1.79879 13.5722L9.625 21.3984L17.4512 13.5722C17.8055 13.2179 18.38 13.2179 18.7343 13.5722Z" fill="black"/>
<path fill-rule="evenodd" clip-rule="evenodd" d="M9.62595 -3.96575e-08C10.127 -1.77553e-08 10.5332 0.406193 10.5332 0.907258L10.5332 22.6815C10.5332 23.1825 10.127 23.5887 9.62594 23.5887C9.12488 23.5887 8.71869 23.1825 8.71869 22.6815L8.71869 0.907258C8.71869 0.406193 9.12488 -6.15598e-08 9.62595 -3.96575e-08Z" fill="black"/>
</svg>
