<svg width="51" height="50" viewBox="0 0 51 50" fill="none" xmlns="http://www.w3.org/2000/svg">
<path d="M16.6609 0.115696C16.0746 0.330673 15.586 0.780163 15.3026 1.35669L15.0486 1.8648V19.2288V36.5929L14.345 36.6613C12.9965 36.7981 12.6057 37.0033 10.6025 38.6156C9.07815 39.8468 8.81431 39.9641 7.62218 39.9738L6.69389 39.9836V38.6645V37.3453L7.47561 37.2867C8.70683 37.1987 9.6449 36.8176 10.4266 36.0945C11.2474 35.3421 11.6285 34.2379 11.6285 32.6256C11.6285 31.0231 11.4429 30.8472 9.7817 30.8472C8.23779 30.8472 6.89909 31.2967 6.176 32.0393L5.86331 32.3716L5.4529 31.9905C4.62232 31.199 3.28362 30.8081 1.62245 30.8668C0.664841 30.8961 0.576897 30.9156 0.332609 31.1501C0.107863 31.3749 0.0687768 31.5117 0.0296906 32.2348C-0.0777965 33.8569 0.440096 35.4398 1.29999 36.1727C2.09149 36.8567 3.29339 37.2964 4.37803 37.2964H4.98387V38.6645V40.0325H4.64186C4.16306 40.0325 3.17613 40.3745 2.69732 40.7165C2.17943 41.0683 1.73971 41.5471 0.967759 42.5731C-0.0484818 43.9216 0.000375945 43.7457 0.000375945 46.3449C0.000375945 48.7585 0.0394622 48.9832 0.46941 49.4523C1.02639 50.0385 -0.742261 49.9995 25.0155 49.9995C44.8811 49.9995 48.7213 49.9799 48.9852 49.8627C49.3662 49.7063 49.7864 49.2666 49.9232 48.8953C49.9916 48.7096 50.0307 47.068 50.0307 44.1463C50.0307 39.71 50.0307 39.6807 49.8157 39.2508C49.6887 39.0065 49.4444 38.7133 49.2588 38.5961C48.9558 38.3909 48.819 38.3713 47.5878 38.3713C46.513 38.3713 46.1416 38.4104 45.6921 38.5667C45.0277 38.7915 44.9007 38.8794 43.1809 40.2475C42.448 40.824 41.676 41.3712 41.4708 41.4591C41.2461 41.5568 40.6989 41.6448 40.1419 41.6741L39.1843 41.723V40.3354V38.9576H39.7999C40.9432 38.9576 42.1548 38.5081 42.9366 37.785C43.8062 36.9838 44.2069 35.7721 44.1482 34.1011C44.1189 33.1533 44.0994 33.0849 43.8453 32.8308C43.5913 32.5768 43.5229 32.5572 42.575 32.5279C40.8943 32.4693 39.5263 32.8797 38.7446 33.6712L38.3635 34.0523L37.9824 33.6712C37.1909 32.8895 35.8033 32.4693 34.1324 32.5279C33.1846 32.5572 33.1162 32.5768 32.8621 32.8308C32.608 33.0849 32.5885 33.1631 32.5494 34.0425C32.4615 36.632 33.4582 38.1563 35.6861 38.8013C35.989 38.8892 36.5167 38.9771 36.8782 38.9869L37.5231 39.0065V40.3647V41.723L36.673 41.6741C36.1942 41.6448 35.6568 41.5568 35.4613 41.4689C35.2659 41.3907 34.748 40.9999 34.3181 40.5992C33.507 39.8566 32.7839 39.4266 32.0413 39.2605C31.797 39.2019 30.1847 39.153 28.3379 39.153C24.4977 39.153 24.6051 39.1726 23.3348 38C22.3186 37.0619 21.8398 36.8372 20.5011 36.6613L20.0321 36.6027V29.1274V21.662H31.3964C44.2948 21.662 43.4447 21.7108 44.2655 20.8802C45.0765 20.079 45.0472 20.3819 45.0472 12.4767C45.0472 4.60084 45.0765 4.89399 44.285 4.07318C43.474 3.24259 44.3241 3.29145 31.3964 3.29145H20.0321V2.77356C20.0321 1.64006 19.5044 0.692219 18.625 0.242729C18.1168 -0.0211029 17.1788 -0.0797348 16.6609 0.115696ZM18.0484 1.8648L18.322 2.09932V21.0464V39.9836L17.5208 40.0129L16.7097 40.0422V21.0952C16.7097 6.09588 16.739 2.12864 16.8368 2.00161C17.169 1.58143 17.6576 1.53257 18.0484 1.8648ZM43.1125 5.22622L43.3372 5.45097V12.4767V19.5025L43.1125 19.7272L42.8877 19.9519L31.4648 19.9813L20.0321 20.0008V12.4767V4.95261L31.4648 4.97216L42.8877 5.00147L43.1125 5.22622ZM3.79174 32.909C4.34872 33.2022 4.47575 33.3097 4.71026 33.7689C4.93501 34.1891 4.98387 34.4138 4.98387 34.961V35.6353H4.46597C3.909 35.6353 3.1859 35.4301 2.66801 35.1174C2.22829 34.8633 1.75925 33.8862 1.69085 33.0947L1.63222 32.4791L2.38463 32.5279C2.99047 32.567 3.26407 32.6452 3.79174 32.909ZM9.99667 32.6354C10.0944 32.8797 9.8501 33.9253 9.59604 34.4041C9.29312 34.961 8.88272 35.2835 8.17916 35.4887C7.56356 35.6744 6.68412 35.6841 6.61572 35.5082C6.52777 35.2737 6.74275 34.2477 6.98703 33.7787C7.26064 33.2315 7.60264 32.9676 8.32574 32.7038C8.94134 32.4888 9.9185 32.4498 9.99667 32.6354ZM36.1551 34.4822C36.7903 34.7754 37.0541 35.0392 37.3277 35.6744C37.5036 36.0555 37.5329 36.2411 37.4743 36.7199L37.4059 37.2964H36.9466C36.3603 37.2964 35.6568 37.0912 35.178 36.7688C34.6796 36.4365 34.2887 35.6451 34.2203 34.7949L34.1715 34.1402L34.8946 34.1891C35.3734 34.2282 35.8033 34.3259 36.1551 34.4822ZM42.4871 34.7852C42.4089 36.0164 41.7933 36.8372 40.6989 37.1499C40.1517 37.316 39.2332 37.3746 39.1257 37.2671C39.0084 37.1499 39.2429 35.9773 39.4774 35.4887C39.8585 34.707 40.8552 34.1793 41.9594 34.1695H42.5262L42.4871 34.7852ZM15.029 39.1726L14.9997 39.9836L14.4134 40.0129C13.7099 40.052 13.3874 40.2865 13.3874 40.7751C13.3874 41.6839 13.4167 41.6936 17.511 41.6936C20.0711 41.6936 21.019 41.6546 21.2046 41.5666C21.7323 41.3028 21.8202 40.6481 21.4001 40.2279C21.2437 40.0716 21.0678 40.0325 20.6183 40.0325H20.0321V39.2019V38.3713H20.4718C21.1167 38.3713 21.5076 38.5667 22.26 39.2801C23.0319 40.0129 23.5205 40.3452 24.1361 40.5895C24.5172 40.736 25.0644 40.7653 28.1913 40.8142C32.3931 40.8728 32.1292 40.8142 33.3898 42.0063C34.1519 42.7294 34.8164 43.1007 35.6665 43.2571C36.3408 43.3841 40.5621 43.3841 41.2363 43.2571C42.0962 43.091 42.6825 42.7587 44.2264 41.5275C45.0375 40.8826 45.8876 40.2865 46.1123 40.1986C46.3859 40.0813 46.8061 40.0325 47.4413 40.0325H48.3695V44.1854V48.3383H25.0155H1.66154V46.4035V44.459L2.30646 43.5893C3.21522 42.3776 3.40088 42.192 3.95785 41.9282C4.41712 41.7132 4.55392 41.6936 6.3128 41.6936C9.24426 41.6936 9.54718 41.5862 11.6676 39.9054C13.3288 38.5765 13.6903 38.3811 14.4916 38.3713H15.0583L15.029 39.1726Z" fill="#FF5112"/>
<path d="M23.8812 6.71148C23.3438 6.92646 23.3535 6.8092 23.3535 12.4962V17.7436L23.588 18.0074C23.9105 18.3885 24.4577 18.3885 24.7802 18.0074C25.0049 17.7533 25.0147 17.6947 25.0147 15.9163V14.089L26.9104 14.1183C28.679 14.1476 28.8354 14.1379 29.3044 13.9424C29.9591 13.6591 30.5258 13.0239 30.7213 12.3692C30.9363 11.6461 30.9363 9.09574 30.7213 8.38242C30.5161 7.6691 29.8223 6.97532 29.109 6.77011C28.4445 6.57468 25.8355 6.55514 25.2004 6.7408C24.8486 6.84828 24.7215 6.84828 24.5261 6.7408C24.2427 6.59422 24.1646 6.59422 23.8812 6.71148ZM28.7181 8.4215C29.1578 8.64625 29.236 8.96871 29.1969 10.5712C29.1676 12.0077 29.1676 12.0077 28.894 12.2422C28.6302 12.4669 28.5618 12.4767 27.1058 12.4767H25.5814L25.2981 12.1933L25.0147 11.9099V10.4051C25.0147 8.2847 25.0049 8.29447 27.096 8.2847C28.0927 8.27493 28.5129 8.31402 28.7181 8.4215Z" fill="#FF5112"/>
<path d="M32.8518 6.85799L32.5391 7.12182V12.4766V17.8314L32.8518 18.0953C33.2231 18.408 33.6432 18.3787 33.9853 17.9878C34.1905 17.7533 34.2002 17.6849 34.2002 15.5449V13.3561H36.3011H38.402V15.5644C38.402 16.7859 38.4411 17.8412 38.4997 17.9389C38.6561 18.2419 39.1349 18.3884 39.4866 18.2321C40.0632 17.9976 40.0632 17.9682 40.0632 12.4766C40.0632 6.98502 40.0632 6.95571 39.4866 6.72119C39.1349 6.56485 38.6561 6.71142 38.4997 7.01434C38.4411 7.11205 38.402 8.16738 38.402 9.38883V11.5972H36.3011H34.2002V9.40837C34.2002 7.2684 34.1905 7.2 33.9853 6.96548C33.6432 6.57462 33.2231 6.5453 32.8518 6.85799Z" fill="#FF5112"/>
<path d="M13.6507 43.5501C13.1524 43.941 13.3674 44.8204 13.9927 44.967C14.1198 44.9865 15.1458 45.0256 16.2695 45.0354L18.3215 45.0647L19.9241 45.8758C21.2921 46.5695 21.5755 46.6868 21.8491 46.6282C22.0249 46.5989 22.2399 46.4718 22.3279 46.3546C22.5135 46.0907 22.5135 45.6119 22.3376 45.3579C22.2595 45.2504 21.3996 44.7618 20.4224 44.283L18.6342 43.4036L16.2793 43.3742C13.9927 43.3449 13.9146 43.3449 13.6507 43.5501Z" fill="#FF5112"/>
<path d="M28.866 43.5404C28.6413 43.6381 28.2602 43.9215 28.0061 44.156C27.6153 44.5273 27.5566 44.6446 27.5566 44.9866C27.5566 45.4849 27.8596 45.7976 28.3579 45.7976C28.6217 45.7976 28.8074 45.7097 29.1494 45.4067L29.5891 45.0159H30.7031C31.9245 45.0159 32.2177 44.9279 32.4229 44.4882C32.589 44.1658 32.5108 43.814 32.2274 43.5502C32.032 43.3743 31.8854 43.3547 30.6445 43.3547C29.511 43.3547 29.1983 43.3938 28.866 43.5404Z" fill="#FF5112"/>
<path d="M44.6573 44.2635C44.1394 44.5273 44.0514 45.2015 44.4814 45.6022C44.667 45.7781 44.8234 45.7976 45.8396 45.7976C46.8461 45.7976 47.0024 45.7781 47.237 45.5924C47.4226 45.4458 47.491 45.2993 47.491 45.0647C47.491 44.6055 47.4128 44.4394 47.0904 44.283C46.7386 44.0974 45.009 44.0876 44.6573 44.2635Z" fill="#FF5112"/>
<path d="M5.23815 45.319C4.90592 45.7099 4.91569 46.0421 5.26746 46.3939L5.55084 46.6772H7.42698C9.73306 46.6772 9.96758 46.5991 9.96758 45.788C9.96758 45.6121 9.86986 45.4069 9.72329 45.2604C9.48877 45.0161 9.479 45.0161 7.48561 45.0161H5.49221L5.23815 45.319Z" fill="#FF5112"/>
<path d="M36.1061 45.2604C35.7641 45.5926 35.7836 46.0226 36.1452 46.3939L36.4285 46.6772H37.8552C38.6271 46.6772 39.3795 46.6382 39.5261 46.5795C39.8583 46.4525 40.1026 45.9053 39.9756 45.5633C39.7802 45.0747 39.5652 45.0161 37.8845 45.0161C36.3797 45.0161 36.3406 45.0259 36.1061 45.2604Z" fill="#FF5112"/>
</svg>
