<svg width="54" height="53" viewBox="0 0 54 53" fill="none" xmlns="http://www.w3.org/2000/svg">
<path fill-rule="evenodd" clip-rule="evenodd" d="M6.125 25C6.74632 25 7.25 25.5037 7.25 26.125V50H37.5V26.125C37.5 25.5037 38.0037 25 38.625 25C39.2463 25 39.75 25.5037 39.75 26.125V51.125C39.75 51.7463 39.2463 52.25 38.625 52.25H6.125C5.50368 52.25 5 51.7463 5 51.125V26.125C5 25.5037 5.50368 25 6.125 25Z" fill="#FF5112"/>
<path fill-rule="evenodd" clip-rule="evenodd" d="M37.5 6.125C37.5 2.74227 40.2422 0 43.625 0H47.375C50.7578 0 53.5 2.74227 53.5 6.125V51.125C53.5 51.7463 52.9963 52.25 52.375 52.25H38.625C38.0037 52.25 37.5 51.7463 37.5 51.125C37.5 50.5037 38.0037 50 38.625 50H51.25V6.125C51.25 3.98488 49.5152 2.25 47.375 2.25H43.625C41.4848 2.25 39.75 3.98488 39.75 6.125V18.625C39.75 19.2463 39.2463 19.75 38.625 19.75C38.0037 19.75 37.5 19.2463 37.5 18.625V6.125Z" fill="#FF5112"/>
<path fill-rule="evenodd" clip-rule="evenodd" d="M13.0019 35.6344C13.3937 35.1522 14.1022 35.0789 14.5845 35.4707L31.5845 49.2832C32.0667 49.675 32.14 50.3835 31.7482 50.8657C31.3564 51.3479 30.6479 51.4212 30.1656 51.0294L13.1656 37.2169C12.6834 36.8251 12.6101 36.1166 13.0019 35.6344Z" fill="#FF5112"/>
<path fill-rule="evenodd" clip-rule="evenodd" d="M12.5 36.125C12.5 35.5037 13.0037 35 13.625 35H31.125C31.7463 35 32.25 35.5037 32.25 36.125V51.125C32.25 51.7463 31.7463 52.25 31.125 52.25C30.5037 52.25 30 51.7463 30 51.125V37.25H14.75V51.125C14.75 51.7463 14.2463 52.25 13.625 52.25C13.0037 52.25 12.5 51.7463 12.5 51.125V36.125Z" fill="#FF5112"/>
<path fill-rule="evenodd" clip-rule="evenodd" d="M37.5 13.625C37.5 13.0037 38.0037 12.5 38.625 12.5H52.375C52.9963 12.5 53.5 13.0037 53.5 13.625C53.5 14.2463 52.9963 14.75 52.375 14.75H38.625C38.0037 14.75 37.5 14.2463 37.5 13.625Z" fill="#FF5112"/>
<path fill-rule="evenodd" clip-rule="evenodd" d="M37.5 36.125C37.5 35.5037 38.0037 35 38.625 35H52.375C52.9963 35 53.5 35.5037 53.5 36.125C53.5 36.7463 52.9963 37.25 52.375 37.25H38.625C38.0037 37.25 37.5 36.7463 37.5 36.125Z" fill="#FF5112"/>
<path fill-rule="evenodd" clip-rule="evenodd" d="M37.5 43.625C37.5 43.0037 38.0037 42.5 38.625 42.5H52.375C52.9963 42.5 53.5 43.0037 53.5 43.625C53.5 44.2463 52.9963 44.75 52.375 44.75H38.625C38.0037 44.75 37.5 44.2463 37.5 43.625Z" fill="#FF5112"/>
<path fill-rule="evenodd" clip-rule="evenodd" d="M21.7263 12.7059C22.1153 12.4314 22.6349 12.4314 23.0239 12.7059L44.2739 27.7059C44.7815 28.0642 44.9025 28.7662 44.5442 29.2738C44.1859 29.7814 43.4839 29.9024 42.9763 29.5441L22.3751 15.002L1.77386 29.5441C1.26626 29.9024 0.564309 29.7814 0.206004 29.2738C-0.152301 28.7662 -0.0312746 28.0642 0.476324 27.7059L21.7263 12.7059Z" fill="#FF5112"/>
<path fill-rule="evenodd" clip-rule="evenodd" d="M21.7789 22.671C22.1437 22.443 22.6066 22.443 22.9714 22.671L26.7214 25.0148C27.2483 25.3441 27.4084 26.0381 27.0791 26.565C26.7498 27.0919 26.0558 27.252 25.5289 26.9227L22.3752 24.9517L19.2214 26.9227C18.6945 27.252 18.0005 27.0919 17.6712 26.565C17.3419 26.0381 17.502 25.3441 18.0289 25.0148L21.7789 22.671Z" fill="#FF5112"/>
<path fill-rule="evenodd" clip-rule="evenodd" d="M0.207064 10.4748C0.566198 9.96781 1.26835 9.84793 1.77536 10.2071L4.87509 12.4027L7.97482 10.2071C8.48183 9.84793 9.18398 9.96781 9.54312 10.4748C9.90225 10.9818 9.78237 11.684 9.27536 12.0431L5.52536 14.6994C5.13577 14.9753 4.61442 14.9753 4.22482 14.6994L0.474822 12.0431C-0.0321909 11.684 -0.15207 10.9818 0.207064 10.4748Z" fill="#FF5112"/>
<path fill-rule="evenodd" clip-rule="evenodd" d="M10.2071 0.474822C10.5662 -0.0321909 11.2683 -0.15207 11.7754 0.207064L14.8751 2.40271L17.9748 0.207064C18.4818 -0.15207 19.184 -0.0321909 19.5431 0.474822C19.9023 0.981834 19.7824 1.68398 19.2754 2.04312L15.5254 4.69937C15.1358 4.97533 14.6144 4.97533 14.2248 4.69937L10.4748 2.04312C9.96781 1.68398 9.84793 0.981834 10.2071 0.474822Z" fill="#FF5112"/>
</svg>
