<svg width="50" height="50" viewBox="0 0 50 50" fill="none" xmlns="http://www.w3.org/2000/svg">
<path d="M5.30083 0.176307C5.16597 0.290415 4.97925 0.715726 4.82365 1.29664C4.15975 3.62029 3.59958 4.21158 1.44191 4.92734C0.26971 5.32153 0 5.51863 0 5.99581C0 6.41075 0.497925 6.78419 1.45228 7.10577C3.5166 7.79041 4.03527 8.29871 4.71992 10.3941C5.08299 11.4937 5.32158 11.8257 5.75726 11.8257C6.21369 11.8257 6.49378 11.4626 6.79461 10.5083C7.29253 8.86925 7.88382 8.03938 8.86929 7.54145C9.04564 7.45846 9.62656 7.24062 10.1763 7.06427C11.2759 6.7012 11.5456 6.49373 11.5456 6.01656C11.5456 5.56012 11.2759 5.33191 10.3319 5.0207C8.08091 4.27382 7.46888 3.63066 6.79461 1.29664C6.51452 0.290415 6.28631 -4.19617e-05 5.80913 -4.19617e-05C5.65353 -4.19617e-05 5.42531 0.0829458 5.30083 0.176307ZM6.10996 4.06635C6.46266 4.68875 7.06431 5.30079 7.66597 5.65348C7.95643 5.81946 8.19502 5.98544 8.19502 6.01656C8.19502 6.04768 7.95643 6.20328 7.66597 6.37963C7.06431 6.73232 6.46266 7.34436 6.10996 7.96676C5.9751 8.20535 5.84025 8.40245 5.80913 8.40245C5.77801 8.40245 5.64315 8.20535 5.5083 7.96676C5.1556 7.34436 4.55394 6.73232 3.95228 6.37963C3.66183 6.20328 3.42324 6.04768 3.42324 6.01656C3.42324 5.98544 3.66183 5.81946 3.95228 5.65348C4.55394 5.30079 5.1556 4.68875 5.5083 4.06635C5.64315 3.82776 5.77801 3.63066 5.80913 3.63066C5.84025 3.63066 5.9751 3.82776 6.10996 4.06635Z" fill="#FF5112"/>
<path d="M45.9959 0.36294C44.4399 0.643023 43.4544 1.1202 42.5831 2.01232C42.0644 2.55174 41.2864 3.67207 41.1515 4.08701C41.1308 4.14925 40.8403 3.95215 40.5084 3.65132C39.3673 2.6036 38.2262 2.21979 36.5665 2.31315C35.3113 2.38576 34.4607 2.6036 34.191 2.92518C34.0353 3.12228 34.0146 3.27788 34.0665 3.83804C34.1495 4.80277 34.388 5.64302 34.803 6.49364C35.6536 8.23638 37.8217 9.45008 39.8134 9.30485L40.5602 9.25298V10.9542V12.6555H39.1806C37.9461 12.6555 37.7698 12.6762 37.5831 12.8629C37.4586 12.9667 37.3341 13.1534 37.2926 13.2675C37.22 13.5165 38.0291 17.6658 38.2366 18.06C38.3092 18.2156 38.4544 18.3609 38.5374 18.4024C38.6308 18.4335 39.9378 18.4646 41.442 18.4646C44.1287 18.4646 44.1806 18.4646 44.4503 18.226C44.6785 18.0289 44.7615 17.7488 45.1246 15.9335C45.6225 13.4335 45.6329 13.1638 45.2698 12.8733C45.0208 12.6762 44.8549 12.6555 43.61 12.6555H42.22V10.892V9.11813L42.6142 9.20111C44.1806 9.53306 46.1308 8.79655 47.6557 7.27165C48.9109 6.03721 49.388 4.68867 49.3984 2.41688C49.3984 0.923105 49.3051 0.570408 48.859 0.342192C48.5271 0.176218 46.971 0.18659 45.9959 0.36294ZM47.6868 2.92518C47.5934 4.69904 47.0748 5.73638 45.8611 6.64925C44.9275 7.34427 44.2428 7.62435 43.4856 7.62435C42.8631 7.62435 42.8009 7.6036 42.5105 7.27165C42.2096 6.92933 42.1992 6.88784 42.2407 6.20319C42.3445 4.83389 43.4856 3.10153 44.6992 2.49987C45.2075 2.24053 45.5084 2.14717 46.6287 1.92933C46.7428 1.90858 47.0436 1.88784 47.2926 1.87746L47.749 1.86709L47.6868 2.92518ZM38.1121 4.14925C38.942 4.40858 39.886 5.22808 40.2905 6.03721C40.6121 6.68037 40.6329 7.04344 40.3632 7.37539C40.1868 7.59323 40.0831 7.62435 39.4503 7.61398C37.6868 7.59323 36.2034 6.3173 35.7988 4.49157C35.6951 3.98327 35.7055 3.9729 36.7324 3.95215C37.1681 3.94178 37.6868 4.02477 38.1121 4.14925ZM43.6723 14.3878C43.6619 14.4397 43.5582 14.9791 43.4337 15.6119L43.1951 16.753L41.3797 16.7841L39.5644 16.8048L39.3777 15.8505C39.2739 15.3214 39.1702 14.7613 39.1391 14.5953L39.0872 14.3152H41.3797C42.6349 14.3152 43.6723 14.3463 43.6723 14.3878Z" fill="#FF5112"/>
<path d="M15.3107 13.2988C15.1551 13.444 14.9476 13.859 14.792 14.3465C14.3148 15.7781 13.8895 16.1826 12.3335 16.6909C11.5451 16.9503 11.2754 17.1888 11.2754 17.6349C11.2754 18.081 11.5451 18.3196 12.3335 18.5789C13.8999 19.0872 14.3148 19.4814 14.7816 20.9025C15.0721 21.7947 15.3936 22.1992 15.8293 22.1992C16.2132 22.1992 16.5451 21.7947 16.7526 21.11C17.1883 19.5955 17.6758 19.0872 19.1385 18.6204C20.0721 18.3299 20.3314 18.1121 20.3314 17.6349C20.3314 17.1681 20.0617 16.9295 19.2629 16.6909C17.7069 16.2345 17.292 15.8403 16.7941 14.3465C16.4621 13.3507 16.2443 13.0706 15.7982 13.0706C15.6737 13.0706 15.4559 13.1743 15.3107 13.2988ZM16.0575 16.6494C16.182 16.8569 16.4725 17.1474 16.7007 17.303C16.9289 17.4586 17.1053 17.6038 17.1053 17.6349C17.1053 17.666 16.9289 17.8113 16.7007 17.9669C16.4725 18.1225 16.182 18.4129 16.0575 18.6204C15.9227 18.8175 15.7982 18.9835 15.7671 18.9835C15.736 18.9835 15.6115 18.8175 15.4766 18.6204C15.3522 18.4129 15.0617 18.1225 14.8335 17.9669C14.6053 17.8113 14.4289 17.666 14.4289 17.6349C14.4289 17.6038 14.6053 17.4586 14.8335 17.303C15.0617 17.1474 15.3522 16.8569 15.4766 16.6494C15.6115 16.4523 15.736 16.2864 15.7671 16.2864C15.7982 16.2864 15.9227 16.4523 16.0575 16.6494Z" fill="#FF5112"/>
<path d="M28.6416 17.8631C27.791 18.1535 26.8885 18.9627 26.484 19.7925C26.2454 20.3008 26.2039 20.5187 26.1935 21.3174C26.1935 22.1162 26.235 22.334 26.4632 22.8319C26.6188 23.1535 26.9093 23.5996 27.1167 23.8278L27.4902 24.2427L26.7329 24.2946C25.5711 24.3776 24.8657 24.6992 24.0669 25.5083C23.4549 26.1411 23.1748 26.5975 20.8304 30.9232C19.3574 33.6203 18.2578 35.7573 18.2578 35.9129C18.2578 36.4004 18.5586 36.5975 20.0213 37.0851C21.5047 37.583 21.7329 37.6245 22.013 37.417C22.1064 37.3444 22.8221 36.2137 23.6105 34.8963C25.1354 32.3444 25.3118 32.0851 25.2495 32.4896C25.2288 32.6141 25.1458 33.4129 25.0524 34.2427C24.9591 35.0726 24.3367 38.7344 23.652 42.3755C22.9674 46.0166 22.4072 49.1079 22.4072 49.2427C22.4072 49.3776 22.5213 49.6058 22.6665 49.7407C22.9155 50 22.9362 50 24.8968 50C26.8159 50 26.8885 49.9896 27.1064 49.7718C27.2827 49.5954 27.6458 48.4855 28.5171 45.4357C29.1603 43.1846 29.7308 41.3071 29.762 41.2552C29.8035 41.2137 30.1976 42.9357 30.6437 45.0726C31.0898 47.2199 31.4943 49.1286 31.5462 49.3257C31.7225 49.9585 31.8781 50 34.0566 50C35.986 50 36.0068 50 36.2557 49.7407C36.401 49.6058 36.5151 49.388 36.5151 49.2635C36.5151 49.139 36.1935 46.0166 35.7993 42.334C35.1665 36.4834 35.0628 35.2075 34.9591 32.2718C34.8968 30.4253 34.8657 28.9004 34.8761 28.89C34.8968 28.8797 36.8989 27.7905 39.3263 26.4627C43.1126 24.4087 43.7661 24.0145 43.8802 23.7552C43.9943 23.4855 43.9528 23.2884 43.5794 22.0228C43.123 20.529 42.874 20.1245 42.4072 20.1245C42.2827 20.1245 40.1147 21.0581 37.5939 22.1992C34.264 23.7033 32.9051 24.2739 32.625 24.2739H32.2412L32.625 23.8485C33.2889 23.112 33.5586 22.3963 33.5483 21.3693C33.5483 20.6224 33.5068 20.3838 33.2578 19.8548C32.4591 18.1017 30.4466 17.2407 28.6416 17.8631ZM30.8512 19.5539C32.4487 20.3112 32.1893 22.8527 30.4674 23.3299C28.8698 23.7863 27.4694 22.3859 27.9051 20.7676C28.04 20.2386 28.6831 19.5539 29.1707 19.4087C29.6479 19.2635 30.374 19.3257 30.8512 19.5539ZM42.013 22.666C42.0856 22.8838 42.1064 23.0913 42.0545 23.1017C41.4943 23.3195 33.4238 27.8319 33.3201 27.9876C33.2059 28.1639 33.1956 28.8382 33.2993 31.9191C33.403 35.2593 33.486 36.2656 34.0877 41.9191C34.4508 45.3838 34.7516 48.2469 34.7516 48.278C34.7516 48.3091 34.3678 48.3402 33.8906 48.3402H33.04L31.9093 43.029C31.2869 40.1037 30.7371 37.5622 30.6852 37.3755C30.5088 36.7324 29.8035 36.5145 29.3263 36.9502C29.1188 37.1473 28.8284 38.0394 27.6976 42.0643C26.9508 44.7407 26.2454 47.251 26.1313 47.6452L25.9238 48.3402H25.1043C24.5649 48.3402 24.2744 48.2988 24.2744 48.2261C24.2744 48.1639 24.7827 45.3942 25.4155 42.0747C26.4425 36.639 26.5877 35.6639 26.9819 32.1369C27.3864 28.4544 27.4072 28.2054 27.2412 27.9564C27.1479 27.8216 26.9508 27.666 26.7952 27.6349C26.1727 27.4793 26.1209 27.5519 23.6416 31.6701C22.3553 33.8278 21.2661 35.612 21.235 35.6432C21.1727 35.7158 20.3325 35.4668 20.3325 35.3838C20.3429 35.3527 21.3595 33.4544 22.6043 31.1722C24.0047 28.6203 25.0213 26.8776 25.2495 26.639C25.9134 25.9751 26.1727 25.9336 29.9798 25.9336H33.3615L37.5628 24.0249C39.8657 22.9772 41.7848 22.1473 41.8159 22.1888C41.8574 22.2199 41.9404 22.4378 42.013 22.666Z" fill="#FF5112"/>
<path d="M7.28197 26.0893C6.64919 26.2863 6.16164 26.7013 5.79857 27.3444C5.60148 27.6868 5.39401 27.9254 5.25915 27.9461C5.13467 27.9772 4.86496 28.0187 4.66787 28.0498C3.9106 28.1743 3.29857 28.776 3.15334 29.5436C3.03923 30.1556 3.27782 30.6639 4.15957 31.6494L4.98944 32.5727L4.27367 33.2469C3.78612 33.693 3.42305 34.1598 3.17409 34.637C2.53094 35.861 2.48944 36.2137 2.48944 40.5187C2.48944 43.4751 2.45832 44.3984 2.36496 44.4814C2.29235 44.5332 2.01226 44.6162 1.74255 44.6473C1.10977 44.7407 0.497741 45.1971 0.207285 45.7884C0.0205627 46.193 -0.0209311 46.4108 0.0205627 47.0436C0.051683 47.6868 0.10355 47.8735 0.362886 48.2469C0.539235 48.4855 0.881558 48.7967 1.13052 48.9316L1.58695 49.1702H9.95832H18.3297L18.7861 48.9316C19.0351 48.7967 19.3878 48.4855 19.5538 48.2469C19.8442 47.832 19.865 47.7386 19.865 46.9088C19.865 46.1411 19.8235 45.944 19.616 45.6121C19.3048 45.1038 18.7446 44.7407 18.1533 44.6473C17.894 44.6059 17.6243 44.5332 17.5621 44.471C17.4583 44.3984 17.4272 43.4648 17.4272 40.4668C17.4272 36.2449 17.3961 35.9025 16.8463 34.7822C16.5143 34.0976 15.7986 33.2158 15.311 32.8839C15.1035 32.7386 14.9376 32.6038 14.9376 32.5727C14.9479 32.5415 15.311 32.1059 15.7674 31.5872C16.2239 31.0789 16.6492 30.5083 16.7114 30.3112C16.8878 29.7822 16.7426 29.0976 16.3691 28.6722C15.9438 28.1847 15.6222 28.0395 14.8442 27.9461C14.2011 27.8735 14.2011 27.8735 13.9521 27.3859C13.6409 26.7635 13.06 26.2863 12.4065 26.0893C11.7218 25.8818 7.9355 25.8818 7.28197 26.0893ZM12.3027 27.9357C12.6762 28.3714 12.6139 28.7552 11.9396 30.3009L11.3276 31.6909L9.94795 31.722L8.55791 31.7428L7.80065 30.2698C7.38571 29.4502 7.04338 28.6722 7.05376 28.5374C7.05376 28.4025 7.20936 28.1432 7.41683 27.9357L7.76953 27.583L9.90645 27.6141L12.0538 27.6453L12.3027 27.9357ZM6.17201 30.6639C6.48322 31.276 6.73218 31.7946 6.70106 31.8154C6.65957 31.8673 5.60148 30.778 5.03094 30.1141C4.73011 29.7407 4.76123 29.7096 5.51849 29.5747C5.54961 29.5747 5.85044 30.0623 6.17201 30.6639ZM15.1035 29.8237C15.145 29.9585 13.2156 32.0229 13.1326 31.9399C13.0807 31.8984 13.8587 29.9897 14.0558 29.6577C14.1181 29.5644 15.0724 29.7096 15.1035 29.8237ZM13.06 33.5996C13.8691 33.8486 14.6264 34.4088 15.0724 35.0934C15.7156 36.0789 15.7052 35.9855 15.7674 40.5602C15.8193 44.4295 15.8401 44.7926 16.0164 45.166C16.2757 45.6951 16.9085 46.1307 17.5102 46.2241C17.7799 46.2552 18.06 46.3382 18.1326 46.3901C18.2882 46.5249 18.2986 47.22 18.1326 47.3859C17.9562 47.5623 1.9604 47.5623 1.78405 47.3859C1.71143 47.3133 1.65957 47.0851 1.65957 46.8673C1.65957 46.4523 1.85666 46.2656 2.30272 46.2656C2.43758 46.2656 2.72803 46.1722 2.95625 46.0581C3.31932 45.8714 3.56828 45.8507 5.41475 45.8507H7.4687V45.0208V44.1909H5.80894H4.14919V40.4772C4.14919 36.3175 4.18031 36.0685 4.84421 35.083C5.30065 34.4088 6.04753 33.8486 6.82554 33.5996C7.32347 33.444 7.79027 33.4129 9.9272 33.4129C12.0953 33.4025 12.5102 33.4337 13.06 33.5996Z" fill="#FF5112"/>
<path d="M9.1283 34.7407V35.249L8.72373 35.3216C8.1117 35.4254 7.42705 35.9129 7.08473 36.4834C6.55568 37.3756 6.74241 38.693 7.48929 39.388C7.79012 39.6681 8.57851 40.0312 8.90008 40.0415C9.11793 40.0415 9.1283 40.083 9.1283 40.7677C9.1283 41.1619 9.10755 41.4938 9.07643 41.4938C8.87934 41.4938 8.40216 41.1515 8.35029 40.9752C8.28805 40.7884 8.19469 40.7677 7.45817 40.7677C6.74241 40.7677 6.63867 40.7884 6.63867 40.944C6.63867 41.2552 7.11585 42.1473 7.42705 42.4482C7.77975 42.7698 8.55776 43.1432 8.90008 43.1536C9.10755 43.1536 9.1283 43.2054 9.1283 43.6722V44.1909H9.95817H10.788V43.6826V43.1743L11.1926 43.1017C11.8046 42.998 12.4893 42.5104 12.8316 41.9399C13.3607 41.0478 13.1739 39.7303 12.4271 39.0353C12.1262 38.7552 11.3378 38.3922 11.0266 38.3818C10.7984 38.3818 10.788 38.3403 10.788 37.666C10.788 37.0021 10.7984 36.9503 10.9955 37.0021C11.1096 37.0332 11.3171 37.1888 11.452 37.3548C11.6905 37.6349 11.7528 37.6556 12.4893 37.6556C13.3918 37.6556 13.4229 37.6142 13.0598 36.8258C12.6968 36.0063 12.0329 35.4772 11.1719 35.3216C10.788 35.249 10.788 35.2386 10.788 34.7407V34.2324H9.95817H9.1283V34.7407ZM9.0868 38.3507C9.06606 38.3818 8.90008 38.3195 8.72373 38.2158C8.16357 37.8839 8.17394 37.3756 8.74448 37.1059L9.07643 36.9399L9.10755 37.6245C9.1283 37.998 9.11793 38.3299 9.0868 38.3507ZM11.203 40.2179C11.5246 40.4357 11.6179 40.5602 11.6179 40.7884C11.6179 40.9959 11.2652 41.3486 10.9851 41.4212C10.8088 41.4731 10.788 41.4108 10.788 40.7573C10.788 40.3631 10.8192 40.0415 10.871 40.0415C10.9125 40.0415 11.0681 40.1245 11.203 40.2179Z" fill="#FF5112"/>
</svg>
