<svg width="274" height="60" viewBox="0 0 274 60" fill="none" xmlns="http://www.w3.org/2000/svg">
<path d="M54.4914 17.9068C52.1065 15.5085 49.0159 13.9375 45.6728 13.4241C45.0678 9.68871 43.1568 6.28922 40.2799 3.83094C37.4031 1.37266 33.7472 0.0151588 29.9631 0.000126197C26.179 -0.0149064 22.5124 1.31351 19.6161 3.74885C16.7198 6.1842 14.7818 9.5684 14.1472 13.2989C10.4174 13.938 7.03542 15.8802 4.60354 18.7795C2.17166 21.6788 0.847706 25.3471 0.867404 29.1313C0.887102 32.9154 2.24918 36.5697 4.71111 39.4436C7.17304 42.3174 10.575 44.2243 14.3113 44.8245C14.9163 48.5599 16.8273 51.9594 19.7042 54.4177C22.5811 56.876 26.237 58.2335 30.021 58.2485C33.8051 58.2636 37.4717 56.9351 40.368 54.4998C43.2643 52.0645 45.2023 48.6803 45.8369 44.9498C48.7249 44.4587 51.4223 43.1832 53.6342 41.2626C55.8462 39.3421 57.4877 36.8504 58.3792 34.06C59.2707 31.2695 59.378 28.2877 58.6893 25.4404C58.0006 22.5931 56.5424 19.99 54.4741 17.9155L54.4914 17.9068ZM32.0132 40.5923C32.3491 40.9709 32.5669 41.4396 32.6395 41.9405C32.7122 42.4415 32.6365 42.9527 32.4218 43.4111C32.2072 43.8695 31.8629 44.255 31.4317 44.52C31.0004 44.785 30.5009 44.9179 29.995 44.9022C29.4891 44.8865 28.9988 44.723 28.5848 44.4319C28.1707 44.1407 27.851 43.7347 27.6651 43.2638C27.4792 42.793 27.4353 42.2781 27.5388 41.7826C27.6422 41.2871 27.8886 40.8328 28.2474 40.4757L28.459 40.2641L24.9264 36.7315L24.7148 36.9388C23.8859 37.7661 23.26 38.7742 22.8859 39.8839C22.5119 40.9936 22.4 42.1749 22.5589 43.3352C22.7178 44.4954 23.1433 45.6031 23.802 46.5714C24.4607 47.5396 25.3347 48.3422 26.3555 48.9162C27.3763 49.4901 28.5161 49.8199 29.6857 49.8795C30.8552 49.9392 32.0227 49.7272 33.0966 49.2602C34.1705 48.7931 35.1217 48.0837 35.8755 47.1875C36.6294 46.2913 37.1654 45.2327 37.4416 44.0947C38.5052 44.4971 39.6082 44.7866 40.7324 44.9584C40.3222 46.5988 39.5385 48.1223 38.4424 49.4099C37.3462 50.6974 35.9674 51.7143 34.4135 52.381C32.8595 53.0477 31.1725 53.3463 29.4841 53.2535C27.7957 53.1607 26.1516 52.6789 24.6801 51.8458C23.2087 51.0127 21.9496 49.8508 21.0013 48.4508C20.053 47.0508 19.441 45.4506 19.2132 43.7751C18.9853 42.0996 19.1478 40.3941 19.6879 38.7917C20.2279 37.1893 21.131 35.7334 22.3266 34.5377L22.5382 34.3304L18.8458 30.6337L18.6342 30.8453C18.2724 31.2092 17.8108 31.4575 17.3077 31.5587C16.8047 31.66 16.2829 31.6096 15.8085 31.4139C15.3341 31.2182 14.9286 30.8861 14.6432 30.4597C14.3578 30.0332 14.2054 29.5317 14.2054 29.0185C14.2054 28.5054 14.3578 28.0038 14.6432 27.5774C14.9286 27.1509 15.3341 26.8188 15.8085 26.6231C16.2829 26.4275 16.8047 26.3771 17.3077 26.4783C17.8108 26.5795 18.2724 26.8278 18.6342 27.1918L18.8458 27.3991L22.387 23.8967L22.1754 23.6851C21.341 22.8477 20.3223 22.2169 19.2007 21.8433C18.0791 21.4696 16.8857 21.3633 15.7157 21.533C14.5457 21.7026 13.4316 22.1434 12.4623 22.8202C11.493 23.497 10.6954 24.391 10.1331 25.4309C9.57075 26.4708 9.25935 27.6278 9.22374 28.8095C9.18813 29.9912 9.42927 31.1648 9.92793 32.2367C10.4266 33.3085 11.1689 34.249 12.0957 34.9829C13.0225 35.7169 14.1081 36.224 15.2657 36.4638C14.8487 37.5243 14.5447 38.6259 14.3588 39.7502C12.713 39.3699 11.1772 38.6146 9.87124 37.5433C8.56526 36.4719 7.52437 35.1134 6.8297 33.5736C6.13503 32.0339 5.80534 30.3545 5.86635 28.6664C5.92736 26.9783 6.37741 25.3271 7.18143 23.8416C7.98544 22.356 9.12169 21.0762 10.5016 20.1019C11.8815 19.1276 13.4678 18.4851 15.1368 18.2246C16.8058 17.9641 18.5124 18.0926 20.1235 18.6001C21.7347 19.1075 23.2069 19.9802 24.4254 21.1501L24.5852 21.3185L24.7968 21.5258L28.1178 18.2048L28.3337 17.9802L28.0098 17.665C27.6738 17.2864 27.4561 16.8177 27.3835 16.3168C27.3108 15.8158 27.3865 15.3046 27.6012 14.8462C27.8158 14.3878 28.1601 14.0022 28.5913 13.7373C29.0226 13.4723 29.5221 13.3394 30.028 13.3551C30.5339 13.3708 31.0242 13.5343 31.4382 13.8254C31.8523 14.1166 32.172 14.5226 32.3579 14.9934C32.5438 15.4643 32.5877 15.9792 32.4842 16.4747C32.3808 16.9702 32.1344 17.4245 31.7756 17.7816L31.564 17.9932L35.0966 21.5258L35.3082 21.3185C36.1371 20.4912 36.763 19.4831 37.1371 18.3734C37.5111 17.2636 37.623 16.0824 37.4641 14.9221C37.3052 13.7619 36.8797 12.6542 36.221 11.6859C35.5623 10.7177 34.6883 9.91508 33.6675 9.34113C32.6467 8.76717 31.5069 8.43743 30.3373 8.37774C29.1678 8.31806 28.0003 8.53005 26.9264 8.99711C25.8525 9.46416 24.9013 10.1736 24.1475 11.0698C23.3936 11.966 22.8576 13.0246 22.5814 14.1626C21.5178 13.7602 20.4148 13.4707 19.2906 13.2989C19.7008 11.6585 20.4845 10.135 21.5806 8.84743C22.6768 7.55987 24.0556 6.54303 25.6096 5.8763C27.1635 5.20956 28.8505 4.91095 30.5389 5.0038C32.2273 5.09664 33.8714 5.57841 35.3429 6.41151C36.8143 7.24461 38.0734 8.40649 39.0217 9.80647C39.97 11.2065 40.582 12.8067 40.8098 14.4822C41.0377 16.1577 40.8752 17.8632 40.3351 19.4656C39.7951 21.068 38.892 22.5239 37.6964 23.7196L37.4848 23.9312L41.1772 27.6236L41.3888 27.412C41.8835 26.9809 42.5234 26.7535 43.1792 26.7758C43.8351 26.7981 44.458 27.0684 44.9223 27.5321C45.3866 27.9959 45.6577 28.6185 45.6807 29.2743C45.7038 29.9302 45.4772 30.5703 45.0466 31.0655C44.561 31.5494 43.9033 31.8212 43.2177 31.8212C42.5321 31.8212 41.8745 31.5494 41.3888 31.0655L41.1772 30.8582L37.6446 34.3908L37.8562 34.6024C38.6911 35.4386 39.7099 36.0681 40.8313 36.4407C41.9526 36.8133 43.1455 36.9187 44.3149 36.7485C45.4842 36.5783 46.5975 36.1372 47.5662 35.4603C48.5348 34.7835 49.3318 33.8897 49.8937 32.8502C50.4556 31.8107 50.7668 30.6543 50.8024 29.4732C50.8381 28.2921 50.5973 27.119 50.0992 26.0474C49.6011 24.9759 48.8595 24.0356 47.9335 23.3015C47.0075 22.5675 45.9228 22.0599 44.7659 21.8195C45.1835 20.7609 45.4861 19.6605 45.6685 18.5373C47.3129 18.9167 48.8476 19.6703 50.1532 20.7396C51.4587 21.8089 52.5 23.165 53.1959 24.7024C53.8918 26.2398 54.2236 27.917 54.1655 29.6036C54.1074 31.2902 53.6609 32.9406 52.8608 34.4264C52.0607 35.9123 50.9286 37.1935 49.5525 38.1703C48.1764 39.1472 46.5934 39.7934 44.9268 40.0587C43.2602 40.3239 41.5549 40.201 39.9436 39.6996C38.3322 39.1982 36.8583 38.3317 35.6364 37.1677L35.4464 36.9733L35.2348 36.7574L31.9138 40.0827L31.7022 40.3159L32.0132 40.5923Z" fill="white"/>
<path d="M64.8555 29.161V29.079C64.8555 20.5023 71.2729 13.4803 80.4024 13.4803C85.9604 13.4803 89.3245 15.4193 92.2093 18.1789L88.8063 22.0958C86.3922 19.8588 83.8097 18.3473 80.3592 18.3473C74.5852 18.3473 70.4264 23.0978 70.4264 28.9926V29.079C70.4264 34.9825 74.6025 39.8063 80.3592 39.8063C84.0645 39.8063 86.4354 38.2992 89.0222 35.8851L92.4253 39.3399C89.2813 42.6177 85.8351 44.6863 80.1864 44.6863C71.4024 44.6734 64.8555 37.8198 64.8555 29.161Z" fill="white"/>
<path d="M93.9375 12.6986H99.15V24.9375C100.614 22.7782 102.726 20.9298 106.263 20.9298C111.389 20.9298 114.36 24.3847 114.36 29.6749V44.1551H109.148V31.2383C109.148 27.7057 107.381 25.6803 104.281 25.6803C101.257 25.6803 99.15 27.7877 99.15 31.3246V44.1638H93.9375V12.6986Z" fill="white"/>
<path d="M115.953 32.8664V32.78C115.953 26.2719 120.565 20.9298 127.069 20.9298C134.311 20.9298 137.974 26.6174 137.974 33.1687C137.974 33.6394 137.93 34.1144 137.887 34.6327H121.17C121.727 38.338 124.357 40.4066 127.717 40.4066C130.261 40.4066 132.07 39.4565 133.88 37.6902L136.937 40.4066C134.778 42.9977 131.811 44.6734 127.631 44.6734C121.04 44.6734 115.953 39.8754 115.953 32.8664ZM132.796 31.1864C132.454 27.8223 130.472 25.1966 127.022 25.1966C123.835 25.1966 121.593 27.6538 121.118 31.1864H132.796Z" fill="white"/>
<path d="M139.779 21.4049H144.996V24.8597C146.46 22.8343 148.451 20.9385 151.932 20.9385C155.205 20.9385 157.49 22.532 158.695 24.9461C160.547 22.532 162.961 20.9385 166.408 20.9385C171.365 20.9385 174.38 24.0824 174.38 29.6447V44.1638H169.167V31.2383C169.167 27.6193 167.487 25.6803 164.555 25.6803C161.713 25.6803 159.688 27.6625 159.688 31.3247V44.1638H154.475V31.2081C154.475 27.6755 152.748 25.6932 149.863 25.6932C146.978 25.6932 144.996 27.8525 144.996 31.3808V44.1768H139.779V21.4049Z" fill="white"/>
<path d="M176.016 32.9095V32.8232C176.016 26.3151 181.198 20.9298 188.168 20.9298C195.138 20.9298 200.26 26.2287 200.26 32.7368V32.8232C200.26 39.301 195.078 44.6734 188.069 44.6734C181.142 44.6734 176.016 39.3701 176.016 32.9095ZM195.061 32.9095V32.8232C195.061 28.8155 192.176 25.4816 188.082 25.4816C183.901 25.4816 181.228 28.7551 181.228 32.7195V32.8059C181.228 36.7704 184.117 40.1475 188.168 40.1475C192.392 40.1475 195.061 36.8524 195.061 32.9095Z" fill="white"/>
<path d="M202.127 21.4048H207.34V24.9374C208.808 22.7782 210.915 20.9298 214.452 20.9298C219.578 20.9298 222.55 24.3847 222.55 29.6749V44.1551H217.337V31.2383C217.337 27.7057 215.571 25.6802 212.47 25.6802C209.447 25.6802 207.34 27.7877 207.34 31.3246V44.1638H202.127V21.4048Z" fill="white"/>
<path d="M225.359 21.4048H230.542V44.1551H225.359V21.4048Z" fill="white"/>
<path d="M233.021 32.9095V32.8232C233.021 26.3453 238.017 20.9298 244.823 20.9298C249.142 20.9298 251.807 22.5234 253.918 24.8511L250.684 28.3405C249.09 26.6606 247.41 25.4989 244.78 25.4989C240.988 25.4989 238.233 28.7723 238.233 32.7368V32.8232C238.233 36.874 241.032 40.1648 245.039 40.1648C247.497 40.1648 249.306 39.0031 250.943 37.3188L254.091 40.4239C251.85 42.9243 249.22 44.6906 244.78 44.6906C243.229 44.7098 241.689 44.418 240.252 43.8325C238.816 43.247 237.511 42.3796 236.415 41.2814C235.318 40.1833 234.453 38.8768 233.871 37.4389C233.288 36.001 232.999 34.4609 233.021 32.9095Z" fill="white"/>
<path d="M255.297 41.171L257.625 37.6341C260.078 39.4867 262.751 40.4368 265.078 40.4368C267.315 40.4368 268.611 39.4868 268.611 37.9796V37.8932C268.611 36.1269 266.197 35.5223 263.524 34.7061C260.164 33.756 256.415 32.3784 256.415 28.0252V27.9389C256.415 23.6203 259.991 21.0032 264.517 21.0032C267.491 21.0614 270.388 21.9597 272.874 23.5944L270.809 27.2997C268.611 25.961 266.283 25.1404 264.388 25.1404C262.362 25.1404 261.2 26.0862 261.2 27.425V27.5113C261.2 29.1481 263.653 29.8347 266.327 30.6984C269.643 31.7306 273.392 33.2421 273.392 37.3318V37.4182C273.392 42.2031 269.686 44.574 264.949 44.574C261.446 44.5286 258.054 43.3329 255.297 41.171Z" fill="white"/>
<path d="M230.72 12.9578H225.119V17.9112H230.72V12.9578Z" fill="white"/>
<path d="M142.633 49.8427H139.766V58.143H142.633C145.16 58.143 146.991 56.4155 146.991 53.9928V53.9669C146.991 51.5787 145.16 49.8427 142.633 49.8427ZM142.633 57.1842H140.793V50.81H142.633C144.572 50.81 145.928 52.1056 145.928 53.9928V54.0144C145.928 55.8757 144.572 57.1713 142.633 57.1713V57.1842Z" fill="white"/>
<path d="M150.748 51.8552C149.081 51.8552 147.82 53.2371 147.82 55.0682C147.8 55.4796 147.863 55.8908 148.005 56.2773C148.147 56.6638 148.366 57.0177 148.648 57.3177C148.931 57.6176 149.27 57.8576 149.648 58.0231C150.025 58.1887 150.431 58.2765 150.843 58.2812C151.322 58.2946 151.797 58.1975 152.232 57.9976C152.667 57.7976 153.051 57.5001 153.352 57.1281L153.387 57.085L152.748 56.5063L152.709 56.5495C152.481 56.8139 152.199 57.0255 151.881 57.1694C151.563 57.3134 151.218 57.3863 150.869 57.3829C150.351 57.3873 149.852 57.1933 149.473 56.8407C149.093 56.4881 148.864 56.0037 148.831 55.4871H153.555V55.4223C153.561 55.3158 153.561 55.2092 153.555 55.1027C153.59 53.1637 152.45 51.8552 150.748 51.8552ZM150.722 52.7189C151.923 52.7189 152.45 53.6992 152.566 54.6406H148.848C148.995 53.5135 149.759 52.7275 150.722 52.7275V52.7189Z" fill="white"/>
<path d="M156.743 56.8993L154.787 52.015L154.77 51.9804H153.664L156.285 58.1517L156.303 58.1862H157.162L159.814 51.9804H158.73L156.743 56.8993Z" fill="white"/>
<path d="M162.815 51.8552C161.148 51.8552 159.887 53.2371 159.887 55.0682C159.866 55.4796 159.929 55.8908 160.071 56.2773C160.214 56.6638 160.432 57.0177 160.715 57.3177C160.997 57.6176 161.337 57.8576 161.714 58.0231C162.091 58.1887 162.498 58.2765 162.91 58.2812C163.388 58.2943 163.862 58.197 164.297 57.9971C164.731 57.7971 165.113 57.4998 165.414 57.1281L165.449 57.085L164.81 56.5063L164.771 56.5495C164.543 56.8139 164.261 57.0255 163.943 57.1694C163.625 57.3134 163.28 57.3863 162.931 57.3829C162.413 57.3873 161.914 57.1933 161.535 56.8407C161.156 56.4881 160.926 56.0037 160.893 55.4871H165.617V55.4223C165.623 55.3158 165.623 55.2092 165.617 55.1027C165.656 53.1637 164.516 51.8552 162.815 51.8552ZM162.789 52.7189C163.989 52.7189 164.516 53.6992 164.633 54.6406H160.914C161.061 53.5135 161.826 52.7275 162.789 52.7275V52.7189Z" fill="white"/>
<path d="M167.725 49.4886H166.719V58.1387H167.725V49.4886Z" fill="white"/>
<path d="M172.026 51.8552C171.605 51.8522 171.188 51.9336 170.798 52.0944C170.409 52.2553 170.056 52.4924 169.76 52.7918C169.464 53.0912 169.23 53.4469 169.074 53.8378C168.917 54.2288 168.84 54.6471 168.848 55.0682C168.832 55.4946 168.903 55.9198 169.055 56.3184C169.207 56.717 169.438 57.0807 169.734 57.388C170.03 57.6952 170.385 57.9396 170.778 58.1065C171.171 58.2734 171.593 58.3594 172.02 58.3594C172.447 58.3594 172.869 58.2734 173.262 58.1065C173.654 57.9396 174.009 57.6952 174.305 57.388C174.601 57.0807 174.833 56.717 174.985 56.3184C175.137 55.9198 175.208 55.4946 175.192 55.0682V55.0466C175.198 54.6279 175.121 54.2122 174.964 53.8239C174.808 53.4355 174.575 53.0823 174.28 52.785C173.986 52.4877 173.634 52.2523 173.247 52.0927C172.86 51.933 172.445 51.8523 172.026 51.8552ZM172.026 57.3614C171.733 57.3565 171.443 57.2928 171.175 57.1741C170.906 57.0554 170.664 56.8842 170.463 56.6704C170.262 56.4567 170.105 56.2048 170.003 55.9296C169.9 55.6544 169.854 55.3615 169.867 55.0682V55.0466C169.85 54.7556 169.892 54.4641 169.991 54.1898C170.09 53.9155 170.243 53.6641 170.442 53.4506C170.64 53.2371 170.88 53.0661 171.146 52.9477C171.413 52.8294 171.7 52.7662 171.992 52.7621C172.286 52.7693 172.575 52.8349 172.844 52.9552C173.112 53.0755 173.354 53.248 173.555 53.4626C173.756 53.6773 173.912 53.9298 174.014 54.2054C174.117 54.4811 174.163 54.7744 174.151 55.0682C174.169 55.3599 174.128 55.6523 174.03 55.9276C173.932 56.2029 173.779 56.4555 173.58 56.6699C173.381 56.8843 173.141 57.0561 172.874 57.175C172.607 57.2938 172.319 57.3573 172.026 57.3614Z" fill="white"/>
<path d="M179.453 51.8552C179.01 51.8547 178.573 51.9661 178.183 52.1789C177.794 52.3918 177.464 52.6992 177.225 53.073V51.9674H176.219V60H177.225V57.1066C177.473 57.468 177.806 57.7632 178.194 57.9665C178.583 58.1697 179.015 58.2748 179.453 58.2726C180.866 58.2726 182.368 57.1497 182.368 55.0682V55.0466C182.368 52.9737 180.878 51.8552 179.453 51.8552ZM179.294 52.775C180.477 52.775 181.341 53.7337 181.341 55.0552V55.0811C181.341 56.4156 180.477 57.3484 179.294 57.3484C179.004 57.3413 178.719 57.2762 178.456 57.1569C178.192 57.0375 177.955 56.8664 177.759 56.6537C177.563 56.441 177.411 56.1911 177.314 55.9187C177.216 55.6463 177.174 55.3571 177.19 55.0682V55.0466C177.169 54.4668 177.379 53.9023 177.773 53.4766C178.167 53.0509 178.714 52.7986 179.294 52.775Z" fill="white"/>
<path d="M190.333 51.8552C189.913 51.846 189.499 51.9468 189.131 52.1476C188.763 52.3484 188.453 52.6421 188.234 52.9996C188.056 52.6447 187.78 52.3483 187.438 52.1454C187.097 51.9426 186.705 51.8419 186.308 51.8552C185.935 51.8485 185.567 51.9385 185.239 52.1163C184.911 52.2941 184.635 52.5538 184.438 52.87V51.9674H183.432V58.143H184.438V54.6363C184.438 53.5653 185.112 52.788 186.044 52.788C186.977 52.788 187.521 53.4401 187.521 54.5154V58.1301H188.519V54.5888C188.519 53.3364 189.318 52.775 190.112 52.775C191.058 52.775 191.602 53.4185 191.602 54.5413V58.1301H192.609V54.3297C192.609 52.8053 191.736 51.8552 190.333 51.8552Z" fill="white"/>
<path d="M196.511 51.8552C194.844 51.8552 193.588 53.2371 193.588 55.0682C193.567 55.4796 193.63 55.8908 193.773 56.2773C193.915 56.6638 194.134 57.0177 194.416 57.3177C194.698 57.6176 195.038 57.8576 195.415 58.0231C195.792 58.1887 196.199 58.2765 196.611 58.2812C197.089 58.2949 197.564 58.198 197.998 57.998C198.433 57.798 198.815 57.5003 199.115 57.1281L199.154 57.085L198.515 56.5063L198.476 56.5495C198.248 56.8142 197.965 57.026 197.646 57.17C197.328 57.3139 196.982 57.3866 196.632 57.3829C196.115 57.3863 195.616 57.1919 195.237 56.8395C194.858 56.4871 194.628 56.0034 194.594 55.4871H199.344V55.4223C199.35 55.3158 199.35 55.2092 199.344 55.1027C199.357 53.1637 198.213 51.8552 196.511 51.8552ZM196.511 52.7189C197.708 52.7189 198.239 53.6992 198.355 54.6406H194.637C194.762 53.5135 195.527 52.7275 196.49 52.7275L196.511 52.7189Z" fill="white"/>
<path d="M203.335 51.8552C202.942 51.8436 202.553 51.9333 202.205 52.1156C201.857 52.2979 201.562 52.5666 201.348 52.8959V51.9675H200.342V58.143H201.348V54.6234C201.333 54.3876 201.367 54.1513 201.447 53.9291C201.527 53.7069 201.652 53.5035 201.814 53.3315C201.976 53.1595 202.172 53.0225 202.388 52.929C202.605 52.8355 202.839 52.7875 203.075 52.788C204.073 52.788 204.669 53.4487 204.669 54.5543V58.143H205.675V54.3297C205.68 52.8312 204.755 51.8552 203.335 51.8552Z" fill="white"/>
<path d="M208.314 50.1579H207.308V51.9674H206.475V52.8786H207.308V56.4717C207.308 57.6074 207.93 58.2336 209.035 58.2336C209.419 58.2409 209.798 58.1503 210.137 57.9702H210.167V57.0719L210.085 57.1151C209.818 57.2531 209.521 57.3228 209.221 57.3181C209.092 57.3372 208.961 57.3257 208.837 57.2846C208.713 57.2435 208.601 57.174 208.509 57.0816C208.417 56.9892 208.348 56.8765 208.307 56.7525C208.267 56.6286 208.256 56.4969 208.275 56.368V52.9132H210.171V51.9674H208.275L208.314 50.1579Z" fill="white"/>
<path d="M220.238 56.7049L218.675 51.9977L218.662 51.9545H217.841L216.274 56.7049L214.758 52.0193L214.745 51.9804H213.674L215.794 58.1473L215.807 58.1862H216.675L218.252 53.5394L219.802 58.1473L219.815 58.1862H220.674L222.79 52.0581L222.816 51.9804H221.771L220.238 56.7049Z" fill="white"/>
<path d="M226.224 51.8552C225.803 51.8528 225.386 51.9345 224.997 52.0956C224.608 52.2567 224.255 52.4938 223.959 52.7931C223.663 53.0924 223.429 53.4478 223.273 53.8385C223.116 54.2292 223.038 54.6472 223.045 55.0682C223.045 55.91 223.38 56.7174 223.975 57.3126C224.57 57.9079 225.378 58.2423 226.219 58.2423C227.061 58.2423 227.869 57.9079 228.464 57.3126C229.059 56.7174 229.394 55.91 229.394 55.0682V55.0466C229.4 54.6275 229.323 54.2115 229.166 53.8228C229.009 53.4342 228.776 53.0808 228.481 52.7834C228.185 52.4861 227.834 52.2508 227.446 52.0914C227.058 51.932 226.643 51.8516 226.224 51.8552ZM226.224 57.3613C225.93 57.3558 225.641 57.2918 225.373 57.1729C225.105 57.054 224.863 56.8827 224.662 56.6691C224.46 56.4555 224.304 56.2038 224.201 55.9289C224.099 55.654 224.052 55.3613 224.065 55.0682V55.0466C224.048 54.7552 224.09 54.4634 224.189 54.1888C224.288 53.9142 224.442 53.6626 224.641 53.449C224.84 53.2355 225.08 53.0645 225.347 52.9464C225.614 52.8284 225.902 52.7656 226.194 52.762C226.488 52.7687 226.778 52.8339 227.046 52.954C227.315 53.0741 227.557 53.2466 227.758 53.4613C227.959 53.6761 228.115 53.9289 228.217 54.2048C228.32 54.4807 228.366 54.7742 228.353 55.0682C228.371 55.3603 228.33 55.653 228.231 55.9286C228.133 56.2042 227.979 56.4569 227.78 56.6714C227.581 56.8859 227.34 57.0576 227.073 57.1762C226.805 57.2948 226.516 57.3578 226.224 57.3613Z" fill="white"/>
<path d="M233.694 51.8724C233.214 51.8854 232.747 52.0316 232.345 52.2947C231.943 52.5578 231.622 52.9275 231.418 53.3623V51.9674H230.412V58.143H231.405V55.6771C231.405 54.0274 232.312 52.9607 233.716 52.9607H233.841V51.8768H233.681L233.694 51.8724Z" fill="white"/>
<path d="M240.047 51.9804H238.773L235.633 55.2928V49.4886H234.627V58.1387H235.633V56.5279L236.782 55.3532L238.898 58.1387H240.107L237.477 54.6363L240.047 51.9804Z" fill="white"/>
<path d="M243.002 54.5802C242.242 54.347 241.53 54.1267 241.53 53.6042V53.5783C241.53 53.0989 241.961 52.762 242.626 52.762C243.245 52.7854 243.844 52.9846 244.354 53.3364L244.406 53.371L244.868 52.5893L244.825 52.5591C244.175 52.1317 243.417 51.8981 242.639 51.8854C241.409 51.8854 240.549 52.6195 240.549 53.6733C240.549 54.8566 241.715 55.1934 242.566 55.4396C243.417 55.6857 244.017 55.893 244.017 56.4458V56.4717C244.017 57.0072 243.542 57.37 242.838 57.37C242.095 57.3446 241.381 57.0777 240.804 56.6099L240.757 56.5754L240.238 57.3095L240.282 57.3441C240.995 57.9136 241.878 58.2309 242.791 58.2466C244.086 58.2466 244.976 57.4952 244.976 56.3767V56.3508C244.963 55.2668 243.995 54.8825 243.002 54.5802Z" fill="white"/>
<path d="M252.036 51.8552C251.643 51.8441 251.253 51.934 250.905 52.1162C250.556 52.2984 250.26 52.5669 250.045 52.896V49.4929H249.043V58.1301H250.045V54.6104C250.03 54.3747 250.064 54.1384 250.144 53.9162C250.224 53.694 250.349 53.4906 250.511 53.3185C250.673 53.1465 250.868 53.0095 251.085 52.9161C251.302 52.8226 251.536 52.7746 251.772 52.775C252.77 52.775 253.366 53.4358 253.366 54.5413V58.1301H254.372V54.3168C254.381 52.8312 253.461 51.8552 252.036 51.8552Z" fill="white"/>
<path d="M258.254 51.8552C256.587 51.8552 255.326 53.2371 255.326 55.0682C255.306 55.4796 255.368 55.8908 255.511 56.2773C255.653 56.6638 255.872 57.0177 256.154 57.3177C256.436 57.6176 256.776 57.8576 257.153 58.0231C257.53 58.1887 257.937 58.2765 258.349 58.2812C258.827 58.2949 259.302 58.198 259.736 57.998C260.171 57.798 260.553 57.5003 260.854 57.1281L260.893 57.085L260.254 56.5063L260.215 56.5495C259.987 56.8139 259.705 57.0255 259.387 57.1694C259.069 57.3134 258.724 57.3863 258.375 57.3829C257.857 57.3873 257.358 57.1933 256.978 56.8407C256.599 56.4881 256.37 56.0037 256.337 55.4871H261.061V55.4223C261.066 55.3158 261.066 55.2092 261.061 55.1027C261.096 53.1637 259.951 51.8552 258.254 51.8552ZM258.228 52.7189C259.429 52.7189 259.956 53.6992 260.072 54.6406H256.354C256.501 53.5135 257.265 52.7275 258.228 52.7275V52.7189Z" fill="white"/>
<path d="M265.363 51.8724C264.883 51.8846 264.414 52.0305 264.012 52.2936C263.609 52.5567 263.288 52.9268 263.083 53.3623V51.9674H262.068V58.143H263.075V55.6771C263.075 54.0274 263.981 52.9607 265.389 52.9607H265.515V51.8768H265.355L265.363 51.8724Z" fill="white"/>
<path d="M268.598 51.8552C266.931 51.8552 265.674 53.2371 265.674 55.0682C265.674 56.8993 266.969 58.2812 268.697 58.2812C269.175 58.2943 269.649 58.197 270.084 57.9971C270.518 57.7971 270.901 57.4998 271.202 57.1281L271.24 57.085L270.601 56.5063L270.562 56.5495C270.334 56.8136 270.05 57.0248 269.732 57.1687C269.414 57.3127 269.068 57.3857 268.718 57.3829C268.201 57.3873 267.701 57.1933 267.322 56.8407C266.943 56.4881 266.713 56.0037 266.68 55.4871H271.431V55.4223C271.431 55.2798 271.431 55.1848 271.431 55.1027C271.439 53.1637 270.299 51.8552 268.598 51.8552ZM268.572 52.7189C269.772 52.7189 270.299 53.6992 270.416 54.6406H266.697C266.844 53.5135 267.609 52.7275 268.572 52.7275V52.7189Z" fill="white"/>
<path d="M273.378 56.7957H272.199V58.1387H273.378V56.7957Z" fill="white"/>
</svg>
